<?xml version="1.0" standalone="no"?>
 <!DOCTYPE svg PUBLIC "-//W3C//DTD SVG 1.1//EN" 
 "http://www.w3.org/Graphics/SVG/1.1/DTD/svg11.dtd"> 
<svg xmlns="http://www.w3.org/2000/svg" version="1.1" 
    width="29.7002cm" height="21.0007cm" viewBox="0 0 116929 82679 ">
<title>SVG Picture created as ESP-01-Breakout.svg date 2015/02/27 01:51:46 </title>
  <desc>Picture generated by Eeschema-SVG </desc>
<g style="fill:#000000; fill-opacity:1;stroke:#000000; stroke-opacity:1;
stroke-linecap:round; stroke-linejoin:round; "
 transform="translate(0 0) scale(1 1)">
</g>
<g style="fill:#9F0000; fill-opacity:0.0; 
stroke:#9F0000; stroke-width:100; stroke-opacity:1; 
stroke-linecap:round; stroke-linejoin:round;">
<path d="M4000 4000
L112930 4000
L112930 78680
L4000 78680
L4000 4000
" />
<path d="M4700 4700
L112230 4700
L112230 77980
L4700 77980
L4700 4700
" />
<path d="M25780 4000
L25780 4700
" />
<path d="M15030 4550
L14750 4550
" />
<path d="M14890 4550
L14890 4050
L14840 4120
L14790 4170
L14750 4200
" />
<path d="M25780 78680
L25780 77980
" />
<path d="M15030 78530
L14750 78530
" />
<path d="M14890 78530
L14890 78030
L14840 78100
L14790 78150
L14750 78180
" />
<path d="M47560 4000
L47560 4700
" />
<path d="M36530 4100
L36550 4080
L36600 4050
L36720 4050
L36760 4080
L36790 4100
L36810 4150
L36810 4200
L36790 4270
L36500 4550
L36810 4550
" />
<path d="M47560 78680
L47560 77980
" />
<path d="M36530 78080
L36550 78060
L36600 78030
L36720 78030
L36760 78060
L36790 78080
L36810 78130
L36810 78180
L36790 78250
L36500 78530
L36810 78530
" />
<path d="M69340 4000
L69340 4700
" />
<path d="M58280 4050
L58590 4050
L58420 4240
L58500 4240
L58540 4270
L58570 4290
L58590 4340
L58590 4460
L58570 4500
L58540 4530
L58500 4550
L58350 4550
L58310 4530
L58280 4500
" />
<path d="M69340 78680
L69340 77980
" />
<path d="M58280 78030
L58590 78030
L58420 78220
L58500 78220
L58540 78250
L58570 78270
L58590 78320
L58590 78440
L58570 78480
L58540 78510
L58500 78530
L58350 78530
L58310 78510
L58280 78480
" />
<path d="M91120 4000
L91120 4700
" />
<path d="M80320 4220
L80320 4550
" />
<path d="M80200 4030
L80090 4390
L80390 4390
" />
<path d="M91120 78680
L91120 77980
" />
<path d="M80320 78200
L80320 78530
" />
<path d="M80200 78010
L80090 78370
L80390 78370
" />
<path d="M102130 4050
L101890 4050
L101870 4290
L101890 4270
L101940 4240
L102060 4240
L102100 4270
L102130 4290
L102150 4340
L102150 4460
L102130 4500
L102100 4530
L102060 4550
L101940 4550
L101890 4530
L101870 4500
" />
<path d="M102130 78030
L101890 78030
L101870 78270
L101890 78250
L101940 78220
L102060 78220
L102100 78250
L102130 78270
L102150 78320
L102150 78440
L102130 78480
L102100 78510
L102060 78530
L101940 78530
L101890 78510
L101870 78480
" />
<path d="M4000 28890
L4700 28890
" />
<path d="M4240 16510
L4470 16510
" />
<path d="M4190 16650
L4350 16150
L4520 16650
" />
<path d="M112930 28890
L112230 28890
" />
<path d="M112470 16510
L112700 16510
" />
<path d="M112420 16650
L112580 16150
L112750 16650
" />
<path d="M4000 53780
L4700 53780
" />
<path d="M4390 41280
L4460 41300
L4480 41330
L4500 41380
L4500 41450
L4480 41490
L4460 41520
L4410 41540
L4220 41540
L4220 41040
L4390 41040
L4430 41070
L4460 41090
L4480 41140
L4480 41190
L4460 41230
L4430 41260
L4390 41280
L4220 41280
" />
<path d="M112930 53780
L112230 53780
" />
<path d="M112620 41280
L112690 41300
L112710 41330
L112730 41380
L112730 41450
L112710 41490
L112690 41520
L112640 41540
L112450 41540
L112450 41040
L112620 41040
L112660 41070
L112690 41090
L112710 41140
L112710 41190
L112690 41230
L112660 41260
L112620 41280
L112450 41280
" />
<path d="M4500 66380
L4480 66410
L4410 66430
L4360 66430
L4290 66410
L4240 66360
L4220 66310
L4200 66220
L4200 66150
L4220 66050
L4240 66000
L4290 65960
L4360 65930
L4410 65930
L4480 65960
L4500 65980
" />
<path d="M112730 66380
L112710 66410
L112640 66430
L112590 66430
L112520 66410
L112470 66360
L112450 66310
L112430 66220
L112430 66150
L112450 66050
L112470 66000
L112520 65960
L112590 65930
L112640 65930
L112710 65960
L112730 65980
" />
<path d="M79380 76420
L79450 75820
L79600 75820
L79680 75850
L79730 75910
L79750 75970
L79770 76080
L79760 76170
L79720 76280
L79680 76340
L79610 76390
L79530 76420
L79380 76420
" />
<path d="M80240 76420
L80280 76110
L80250 76050
L80200 76020
L80090 76020
L80020 76050
" />
<path d="M80240 76390
L80180 76420
L80040 76420
L79980 76390
L79960 76340
L79970 76280
L80000 76220
L80070 76190
L80210 76190
L80270 76170
" />
<path d="M80490 76020
L80720 76020
" />
<path d="M80590 75820
L80530 76340
L80550 76390
L80610 76420
L80670 76420
" />
<path d="M81090 76390
L81030 76420
L80920 76420
L80860 76390
L80840 76340
L80870 76110
L80900 76050
L80970 76020
L81080 76020
L81130 76050
L81160 76110
L81150 76170
L80850 76220
" />
<path d="M81370 76370
L81400 76390
L81370 76420
L81340 76390
L81370 76370
L81370 76420
" />
<path d="M81410 76050
L81440 76080
L81410 76110
L81380 76080
L81410 76050
L81410 76110
" />
<path d="M82160 75880
L82190 75850
L82250 75820
L82390 75820
L82450 75850
L82480 75880
L82500 75940
L82490 75990
L82450 76080
L82070 76420
L82440 76420
" />
<path d="M83020 75820
L82910 75820
L82850 75850
L82820 75880
L82740 75970
L82700 76080
L82670 76310
L82690 76370
L82720 76390
L82780 76420
L82890 76420
L82950 76390
L82980 76370
L83020 76310
L83040 76170
L83020 76110
L82990 76080
L82930 76050
L82820 76050
L82760 76080
L82730 76110
L82690 76170
" />
<path d="M83690 76020
L83920 76020
" />
<path d="M83720 76420
L83780 75910
L83820 75850
L83880 75820
L83940 75820
" />
<path d="M84290 76390
L84230 76420
L84120 76420
L84060 76390
L84040 76340
L84070 76110
L84100 76050
L84170 76020
L84280 76020
L84330 76050
L84360 76110
L84350 76170
L84050 76220
" />
<path d="M84570 76420
L84640 75820
" />
<path d="M84610 76050
L84680 76020
L84790 76020
L84840 76050
L84870 76080
L84890 76140
L84870 76310
L84830 76370
L84800 76390
L84740 76420
L84630 76420
L84570 76390
" />
<path d="M85610 75880
L85640 75850
L85700 75820
L85840 75820
L85900 75850
L85930 75880
L85950 75940
L85940 75990
L85900 76080
L85520 76420
L85890 76420
" />
<path d="M86330 75820
L86380 75820
L86440 75850
L86470 75880
L86490 75940
L86500 76050
L86490 76190
L86440 76310
L86400 76370
L86370 76390
L86310 76420
L86260 76420
L86200 76390
L86170 76370
L86150 76310
L86140 76190
L86150 76050
L86200 75940
L86240 75880
L86270 75850
L86330 75820
" />
<path d="M87030 76420
L86680 76420
" />
<path d="M86860 76420
L86930 75820
L86860 75910
L86790 75970
L86730 75990
" />
<path d="M87640 75820
L87350 75820
L87290 76110
L87320 76080
L87380 76050
L87520 76050
L87580 76080
L87610 76110
L87630 76170
L87610 76310
L87570 76370
L87540 76390
L87480 76420
L87340 76420
L87280 76390
L87250 76370
" />
<path d="M70970 77620
L70970 77020
" />
<path d="M71320 77620
L71060 77280
" />
<path d="M71320 77020
L70970 77370
" />
<path d="M71570 77620
L71570 77220
" />
<path d="M71570 77020
L71540 77050
L71570 77080
L71600 77050
L71570 77020
L71570 77080
" />
<path d="M72210 77570
L72180 77590
L72090 77620
L72030 77620
L71950 77590
L71890 77540
L71860 77480
L71830 77370
L71830 77280
L71860 77170
L71890 77110
L71950 77050
L72030 77020
L72090 77020
L72180 77050
L72210 77080
" />
<path d="M72720 77620
L72720 77310
L72690 77250
L72630 77220
L72520 77220
L72460 77250
" />
<path d="M72720 77590
L72660 77620
L72520 77620
L72460 77590
L72430 77540
L72430 77480
L72460 77420
L72520 77390
L72660 77390
L72720 77370
" />
<path d="M73260 77620
L73260 77020
" />
<path d="M73260 77590
L73200 77620
L73090 77620
L73030 77590
L73000 77570
L72970 77510
L72970 77340
L73000 77280
L73030 77250
L73090 77220
L73200 77220
L73260 77250
" />
<path d="M74000 77310
L74200 77310
" />
<path d="M74290 77620
L74000 77620
L74000 77020
L74290 77020
" />
<path d="M74540 77570
L74570 77590
L74540 77620
L74510 77590
L74540 77570
L74540 77620
" />
<path d="M74830 77620
L74830 77020
L74980 77020
L75060 77050
L75120 77110
L75150 77170
L75180 77280
L75180 77370
L75150 77480
L75120 77540
L75060 77590
L74980 77620
L74830 77620
" />
<path d="M75430 77570
L75460 77590
L75430 77620
L75400 77590
L75430 77570
L75430 77620
" />
<path d="M75690 77450
L75980 77450
" />
<path d="M75640 77620
L75840 77020
L76040 77620
" />
<path d="M76230 77570
L76260 77590
L76230 77620
L76200 77590
L76230 77570
L76230 77620
" />
<path d="M104530 76420
L104360 76140
" />
<path d="M104180 76420
L104250 75820
L104480 75820
L104540 75850
L104570 75880
L104590 75940
L104580 76020
L104540 76080
L104510 76110
L104440 76140
L104210 76140
" />
<path d="M105010 76390
L104950 76420
L104840 76420
L104780 76390
L104760 76340
L104790 76110
L104820 76050
L104890 76020
L105000 76020
L105050 76050
L105080 76110
L105070 76170
L104770 76220
" />
<path d="M105290 76020
L105380 76420
L105570 76020
" />
<path d="M105750 76370
L105780 76390
L105750 76420
L105720 76390
L105750 76370
L105750 76420
" />
<path d="M105790 76050
L105820 76080
L105790 76110
L105760 76080
L105790 76050
L105790 76110
" />
<path d="M70940 76390
L71030 76420
L71170 76420
L71230 76390
L71260 76370
L71290 76310
L71290 76250
L71260 76190
L71230 76170
L71170 76140
L71060 76110
L71000 76080
L70970 76050
L70940 75990
L70940 75940
L70970 75880
L71000 75850
L71060 75820
L71200 75820
L71290 75850
" />
<path d="M71540 76420
L71540 76020
" />
<path d="M71540 75820
L71510 75850
L71540 75880
L71570 75850
L71540 75820
L71540 75880
" />
<path d="M71780 76020
L72090 76020
L71780 76420
L72090 76420
" />
<path d="M72550 76390
L72490 76420
L72380 76420
L72320 76390
L72290 76340
L72290 76110
L72320 76050
L72380 76020
L72490 76020
L72550 76050
L72580 76110
L72580 76170
L72290 76220
" />
<path d="M72830 76370
L72860 76390
L72830 76420
L72800 76390
L72830 76370
L72830 76420
" />
<path d="M72830 76050
L72860 76080
L72830 76110
L72800 76080
L72830 76050
L72830 76110
" />
<path d="M73550 76250
L73840 76250
" />
<path d="M73500 76420
L73700 75820
L73900 76420
" />
<path d="M74350 76020
L74350 76420
" />
<path d="M74210 75790
L74060 76220
L74440 76220
" />
<path d="M104170 77620
L104170 77020
" />
<path d="M104720 77620
L104720 77020
" />
<path d="M104720 77590
L104660 77620
L104550 77620
L104490 77590
L104460 77570
L104430 77510
L104430 77340
L104460 77280
L104490 77250
L104550 77220
L104660 77220
L104720 77250
" />
<path d="M105000 77570
L105030 77590
L105000 77620
L104970 77590
L105000 77570
L105000 77620
" />
<path d="M105000 77250
L105030 77280
L105000 77310
L104970 77280
L105000 77250
L105000 77310
" />
<path d="M106070 77620
L105720 77620
" />
<path d="M105900 77620
L105900 77020
L105840 77110
L105780 77170
L105720 77190
" />
<path d="M106750 76990
L106240 77770
" />
<path d="M107270 77620
L106920 77620
" />
<path d="M107100 77620
L107100 77020
L107040 77110
L106980 77170
L106920 77190
" />
<path d="M70970 74620
L71310 74620
" />
<path d="M71070 75220
L71140 74620
" />
<path d="M71440 75220
L71490 74820
" />
<path d="M71510 74620
L71480 74650
L71510 74680
L71540 74650
L71510 74620
L71510 74680
" />
<path d="M71700 74820
L71930 74820
" />
<path d="M71800 74620
L71740 75140
L71760 75190
L71820 75220
L71880 75220
" />
<path d="M72160 75220
L72100 75190
L72080 75140
L72140 74620
" />
<path d="M72610 75190
L72550 75220
L72440 75220
L72380 75190
L72360 75140
L72390 74910
L72420 74850
L72490 74820
L72600 74820
L72650 74850
L72680 74910
L72670 74970
L72370 75020
" />
<path d="M72890 75170
L72920 75190
L72890 75220
L72860 75190
L72890 75170
L72890 75220
" />
<path d="M72930 74850
L72960 74880
L72930 74910
L72900 74880
L72930 74850
L72930 74910
" />
<path d="M71170 72510
L70970 72510
" />
<path d="M70970 72820
L70970 72220
L71260 72220
" />
<path d="M71480 72820
L71480 72420
" />
<path d="M71480 72220
L71450 72250
L71480 72280
L71510 72250
L71480 72220
L71480 72280
" />
<path d="M71860 72820
L71800 72790
L71770 72740
L71770 72220
" />
<path d="M72310 72790
L72250 72820
L72140 72820
L72080 72790
L72050 72740
L72050 72510
L72080 72450
L72140 72420
L72250 72420
L72310 72450
L72340 72510
L72340 72570
L72050 72620
" />
<path d="M72590 72770
L72620 72790
L72590 72820
L72560 72790
L72590 72770
L72590 72820
" />
<path d="M72590 72450
L72620 72480
L72590 72510
L72560 72480
L72590 72450
L72590 72510
" />
<path d="M73340 72510
L73540 72510
" />
<path d="M73630 72820
L73340 72820
L73340 72220
L73630 72220
" />
<path d="M73850 72790
L73940 72820
L74080 72820
L74140 72790
L74170 72770
L74200 72710
L74200 72650
L74170 72590
L74140 72570
L74080 72540
L73970 72510
L73910 72480
L73880 72450
L73850 72390
L73850 72340
L73880 72280
L73910 72250
L73970 72220
L74110 72220
L74200 72250
" />
<path d="M74450 72820
L74450 72220
L74680 72220
L74740 72250
L74770 72280
L74800 72340
L74800 72420
L74770 72480
L74740 72510
L74680 72540
L74450 72540
" />
<path d="M75050 72590
L75510 72590
" />
<path d="M75910 72220
L75960 72220
L76020 72250
L76050 72280
L76080 72340
L76110 72450
L76110 72590
L76080 72710
L76050 72770
L76020 72790
L75960 72820
L75910 72820
L75850 72790
L75820 72770
L75790 72710
L75760 72590
L75760 72450
L75790 72340
L75820 72280
L75850 72250
L75910 72220
" />
<path d="M76680 72820
L76330 72820
" />
<path d="M76510 72820
L76510 72220
L76450 72310
L76390 72370
L76330 72390
" />
<path d="M76930 72590
L77390 72590
" />
<path d="M77870 72510
L77960 72540
L77990 72570
L78020 72620
L78020 72710
L77990 72770
L77960 72790
L77900 72820
L77670 72820
L77670 72220
L77870 72220
L77930 72250
L77960 72280
L77990 72340
L77990 72390
L77960 72450
L77930 72480
L77870 72510
L77670 72510
" />
<path d="M78270 72820
L78270 72420
" />
<path d="M78270 72540
L78300 72480
L78330 72450
L78390 72420
L78440 72420
" />
<path d="M78870 72790
L78810 72820
L78700 72820
L78640 72790
L78610 72740
L78610 72510
L78640 72450
L78700 72420
L78810 72420
L78870 72450
L78900 72510
L78900 72570
L78610 72620
" />
<path d="M79410 72820
L79410 72510
L79380 72450
L79320 72420
L79210 72420
L79150 72450
" />
<path d="M79410 72790
L79350 72820
L79210 72820
L79150 72790
L79120 72740
L79120 72680
L79150 72620
L79210 72590
L79350 72590
L79410 72570
" />
<path d="M79690 72820
L79690 72220
" />
<path d="M79750 72590
L79920 72820
" />
<path d="M79920 72420
L79690 72650
" />
<path d="M80270 72820
L80210 72790
L80180 72770
L80150 72710
L80150 72540
L80180 72480
L80210 72450
L80270 72420
L80350 72420
L80410 72450
L80440 72480
L80470 72540
L80470 72710
L80440 72770
L80410 72790
L80350 72820
L80270 72820
" />
<path d="M80980 72420
L80980 72820
" />
<path d="M80720 72420
L80720 72740
L80750 72790
L80810 72820
L80890 72820
L80950 72790
L80980 72770
" />
<path d="M81180 72420
L81410 72420
" />
<path d="M81260 72220
L81260 72740
L81290 72790
L81350 72820
L81410 72820
" />
<path d="M81600 72770
L81630 72790
L81600 72820
L81570 72790
L81600 72770
L81600 72820
" />
<path d="M81860 72790
L81920 72820
L82040 72820
L82090 72790
L82120 72740
L82120 72710
L82090 72650
L82040 72620
L81950 72620
L81890 72590
L81860 72540
L81860 72510
L81890 72450
L81950 72420
L82040 72420
L82090 72450
" />
<path d="M82640 72790
L82580 72820
L82470 72820
L82410 72790
L82380 72770
L82350 72710
L82350 72540
L82380 72480
L82410 72450
L82470 72420
L82580 72420
L82640 72450
" />
<path d="M82890 72820
L82890 72220
" />
<path d="M83150 72820
L83150 72510
L83120 72450
L83060 72420
L82980 72420
L82920 72450
L82890 72480
" />
<path d="M70940 73990
L71030 74020
L71170 74020
L71230 73990
L71260 73970
L71290 73910
L71290 73850
L71260 73790
L71230 73770
L71170 73740
L71060 73710
L71000 73680
L70970 73650
L70940 73590
L70940 73540
L70970 73480
L71000 73450
L71060 73420
L71200 73420
L71290 73450
" />
<path d="M71540 74020
L71540 73420
" />
<path d="M71800 74020
L71800 73710
L71770 73650
L71710 73620
L71630 73620
L71570 73650
L71540 73680
" />
<path d="M72310 73990
L72250 74020
L72140 74020
L72080 73990
L72050 73940
L72050 73710
L72080 73650
L72140 73620
L72250 73620
L72310 73650
L72340 73710
L72340 73770
L72050 73820
" />
<path d="M72820 73990
L72760 74020
L72650 74020
L72590 73990
L72560 73940
L72560 73710
L72590 73650
L72650 73620
L72760 73620
L72820 73650
L72850 73710
L72850 73770
L72560 73820
" />
<path d="M73020 73620
L73250 73620
" />
<path d="M73100 73420
L73100 73940
L73130 73990
L73190 74020
L73250 74020
" />
<path d="M73440 73970
L73470 73990
L73440 74020
L73410 73990
L73440 73970
L73440 74020
" />
<path d="M73440 73650
L73470 73680
L73440 73710
L73410 73680
L73440 73650
L73440 73710
" />
<path d="M74620 73390
L74110 74170
" />
<path d="M70230 71980
L70230 77980
" />
<path d="M70230 71980
L112230 71980
" />
<path d="M70230 71980
L112230 71980
" />
<path d="M70230 74380
L112230 74380
" />
<path d="M103430 75580
L103430 77980
" />
<path d="M70230 76780
L112230 76780
" />
<path d="M70230 75580
L112230 75580
" />
<path d="M76830 75580
L76830 76780
" />
</g>
<g style="fill:#9F0000; fill-opacity:0.0; 
stroke:#9F0000; stroke-width:0; stroke-opacity:1; 
stroke-linecap:round; stroke-linejoin:round;">
</g>
<g style="fill:#9F0000; fill-opacity:0.0; 
stroke:#9F0000; stroke-width:60; stroke-opacity:1; 
stroke-linecap:round; stroke-linejoin:round;">
<rect x="22800" y="15900" width="3400" height="100" rx="0" />
<polyline fill="none;"
points="24100,15900
24200,15600
24800,15600
24900,15900
" /> 
<circle cx="23150" cy="16500" r="350" /> 
<path d="M22800 16500
L21500 16500
" />
<circle cx="25850" cy="16500" r="350" /> 
<path d="M26200 16500
L27500 16500
" />
</g>
<g style="fill:#009F9F; fill-opacity:0.0; 
stroke:#009F9F; stroke-width:60; stroke-opacity:1; 
stroke-linecap:round; stroke-linejoin:round;">
<path d="M25340 15550
L25410 15570
L25530 15570
L25570 15550
L25600 15520
L25620 15480
L25620 15430
L25600 15380
L25570 15360
L25530 15330
L25430 15310
L25380 15290
L25360 15260
L25340 15220
L25340 15170
L25360 15120
L25380 15100
L25430 15070
L25550 15070
L25620 15100
" />
<path d="M25790 15070
L25910 15570
L26010 15220
L26100 15570
L26220 15070
" />
<path d="M26390 15120
L26410 15100
L26460 15070
L26580 15070
L26620 15100
L26650 15120
L26670 15170
L26670 15220
L26650 15290
L26360 15570
L26670 15570
" />
<path d="M23590 17470
L23590 16970
L23780 16970
L23830 17000
L23850 17020
L23870 17070
L23870 17140
L23850 17190
L23830 17210
L23780 17230
L23590 17230
" />
<path d="M24370 17470
L24210 17230
" />
<path d="M24090 17470
L24090 16970
L24280 16970
L24330 17000
L24350 17020
L24370 17070
L24370 17140
L24350 17190
L24330 17210
L24280 17230
L24090 17230
" />
<path d="M24850 17000
L24800 16970
L24730 16970
L24660 17000
L24610 17040
L24590 17090
L24570 17190
L24570 17260
L24590 17350
L24610 17400
L24660 17450
L24730 17470
L24780 17470
L24850 17450
L24870 17420
L24870 17260
L24780 17260
" />
<path d="M25090 17470
L25090 16970
L25260 17330
L25420 16970
L25420 17470
" />
</g>
<g style="fill:#009F9F; fill-opacity:0.0; 
stroke:#009F9F; stroke-width:0; stroke-opacity:1; 
stroke-linecap:round; stroke-linejoin:round;">
</g>
<g style="fill:#9F0000; fill-opacity:0.0; 
stroke:#9F0000; stroke-width:60; stroke-opacity:1; 
stroke-linecap:round; stroke-linejoin:round;">
<rect x="9000" y="18500" width="4000" height="3000" rx="0" />
<path d="M9000 19500
L7000 19500
" />
</g>
<g style="fill:#009F9F; fill-opacity:0.0; 
stroke:#009F9F; stroke-width:60; stroke-opacity:1; 
stroke-linecap:round; stroke-linejoin:round;">
<path d="M9450 19200
L9610 19700
L9780 19200
" />
<path d="M9950 19700
L9950 19200
L10070 19200
L10140 19230
L10190 19270
L10210 19320
L10230 19420
L10230 19490
L10210 19580
L10190 19630
L10140 19680
L10070 19700
L9950 19700
" />
<path d="M10450 19700
L10450 19200
L10570 19200
L10640 19230
L10690 19270
L10710 19320
L10730 19420
L10730 19490
L10710 19580
L10690 19630
L10640 19680
L10570 19700
L10450 19700
" />
</g>
<g style="fill:#9F0000; fill-opacity:0.0; 
stroke:#9F0000; stroke-width:60; stroke-opacity:1; 
stroke-linecap:round; stroke-linejoin:round;">
<path d="M8140 19350
L7860 19350
" />
<path d="M8000 19350
L8000 18850
L7950 18920
L7900 18970
L7860 19000
" />
<path d="M9000 20500
L7000 20500
" />
</g>
<g style="fill:#009F9F; fill-opacity:0.0; 
stroke:#009F9F; stroke-width:60; stroke-opacity:1; 
stroke-linecap:round; stroke-linejoin:round;">
<path d="M9520 20700
L9520 20200
L9640 20200
L9710 20230
L9760 20270
L9780 20320
L9800 20420
L9800 20490
L9780 20580
L9760 20630
L9710 20680
L9640 20700
L9520 20700
" />
<path d="M10110 20200
L10210 20200
L10260 20230
L10300 20270
L10330 20370
L10330 20540
L10300 20630
L10260 20680
L10210 20700
L10110 20700
L10070 20680
L10020 20630
L10000 20540
L10000 20370
L10020 20270
L10070 20230
L10110 20200
" />
</g>
<g style="fill:#9F0000; fill-opacity:0.0; 
stroke:#9F0000; stroke-width:60; stroke-opacity:1; 
stroke-linecap:round; stroke-linejoin:round;">
<path d="M7860 19900
L7880 19880
L7930 19850
L8050 19850
L8090 19880
L8120 19900
L8140 19950
L8140 20000
L8120 20070
L7830 20350
L8140 20350
" />
<path d="M13000 20500
L15000 20500
" />
</g>
<g style="fill:#009F9F; fill-opacity:0.0; 
stroke:#009F9F; stroke-width:60; stroke-opacity:1; 
stroke-linecap:round; stroke-linejoin:round;">
<path d="M11260 20200
L11420 20700
L11590 20200
" />
<path d="M11740 20680
L11810 20700
L11930 20700
L11970 20680
L12000 20650
L12020 20610
L12020 20560
L12000 20510
L11970 20490
L11930 20460
L11830 20440
L11780 20420
L11760 20390
L11740 20350
L11740 20300
L11760 20250
L11780 20230
L11830 20200
L11950 20200
L12020 20230
" />
<path d="M12220 20680
L12290 20700
L12410 20700
L12450 20680
L12480 20650
L12500 20610
L12500 20560
L12480 20510
L12450 20490
L12410 20460
L12310 20440
L12260 20420
L12240 20390
L12220 20350
L12220 20300
L12240 20250
L12260 20230
L12310 20200
L12430 20200
L12500 20230
" />
</g>
<g style="fill:#9F0000; fill-opacity:0.0; 
stroke:#9F0000; stroke-width:60; stroke-opacity:1; 
stroke-linecap:round; stroke-linejoin:round;">
<path d="M13830 19850
L14140 19850
L13970 20040
L14050 20040
L14090 20070
L14120 20090
L14140 20140
L14140 20260
L14120 20300
L14090 20330
L14050 20350
L13900 20350
L13860 20330
L13830 20300
" />
<path d="M13000 19500
L15000 19500
" />
</g>
<g style="fill:#009F9F; fill-opacity:0.0; 
stroke:#009F9F; stroke-width:60; stroke-opacity:1; 
stroke-linecap:round; stroke-linejoin:round;">
<path d="M11980 19700
L11980 19200
L12100 19200
L12170 19230
L12220 19270
L12240 19320
L12260 19420
L12260 19490
L12240 19580
L12220 19630
L12170 19680
L12100 19700
L11980 19700
" />
<path d="M12480 19700
L12480 19200
" />
</g>
<g style="fill:#9F0000; fill-opacity:0.0; 
stroke:#9F0000; stroke-width:60; stroke-opacity:1; 
stroke-linecap:round; stroke-linejoin:round;">
<path d="M14090 19020
L14090 19350
" />
<path d="M13970 18830
L13860 19190
L14160 19190
" />
</g>
<g style="fill:#009F9F; fill-opacity:0.0; 
stroke:#009F9F; stroke-width:60; stroke-opacity:1; 
stroke-linecap:round; stroke-linejoin:round;">
<path d="M10410 22210
L10410 21610
" />
<path d="M11050 22160
L11020 22180
L10930 22210
L10870 22210
L10790 22180
L10730 22130
L10700 22070
L10670 21960
L10670 21870
L10700 21760
L10730 21700
L10790 21640
L10870 21610
L10930 21610
L11020 21640
L11050 21670
" />
<path d="M11620 22210
L11270 22210
" />
<path d="M11450 22210
L11450 21610
L11390 21700
L11330 21760
L11270 21780
" />
<path d="M9020 17610
L9160 18210
L9270 17780
L9390 18210
L9530 17610
" />
<path d="M9730 18180
L9820 18210
L9960 18210
L10020 18180
L10050 18160
L10080 18100
L10080 18040
L10050 17980
L10020 17960
L9960 17930
L9850 17900
L9790 17870
L9760 17840
L9730 17780
L9730 17730
L9760 17670
L9790 17640
L9850 17610
L9990 17610
L10080 17640
" />
<path d="M10300 17670
L10330 17640
L10390 17610
L10530 17610
L10590 17640
L10620 17670
L10650 17730
L10650 17780
L10620 17870
L10280 18210
L10650 18210
" />
<path d="M10990 17870
L10930 17840
L10900 17810
L10870 17760
L10870 17730
L10900 17670
L10930 17640
L10990 17610
L11100 17610
L11160 17640
L11190 17670
L11220 17730
L11220 17760
L11190 17810
L11160 17840
L11100 17870
L10990 17870
L10930 17900
L10900 17930
L10870 17980
L10870 18100
L10900 18160
L10930 18180
L10990 18210
L11100 18210
L11160 18180
L11190 18160
L11220 18100
L11220 17980
L11190 17930
L11160 17900
L11100 17870
" />
<path d="M11790 18210
L11440 18210
" />
<path d="M11620 18210
L11620 17610
L11560 17700
L11500 17760
L11440 17780
" />
<path d="M12010 17670
L12040 17640
L12100 17610
L12240 17610
L12300 17640
L12330 17670
L12360 17730
L12360 17780
L12330 17870
L11990 18210
L12360 18210
" />
<path d="M12810 17900
L12900 17930
L12930 17960
L12960 18010
L12960 18100
L12930 18160
L12900 18180
L12840 18210
L12610 18210
L12610 17610
L12810 17610
L12870 17640
L12900 17670
L12930 17730
L12930 17780
L12900 17840
L12870 17870
L12810 17900
L12610 17900
" />
</g>
<g style="fill:#009F9F; fill-opacity:0.0; 
stroke:#009F9F; stroke-width:0; stroke-opacity:1; 
stroke-linecap:round; stroke-linejoin:round;">
</g>
<g style="fill:#9F0000; fill-opacity:0.0; 
stroke:#9F0000; stroke-width:60; stroke-opacity:1; 
stroke-linecap:round; stroke-linejoin:round;">
<polyline fill="none;"
points="15000,13000
14500,13500
15000,14000
15000,13000
" /> 
</g>
<g style="fill:#9F0000; fill-opacity:0.0; 
stroke:#9F0000; stroke-width:0; stroke-opacity:1; 
stroke-linecap:round; stroke-linejoin:round;">
</g>
<g style="fill:#9F0000; fill-opacity:0.0; 
stroke:#9F0000; stroke-width:60; stroke-opacity:1; 
stroke-linecap:round; stroke-linejoin:round;">
<circle cx="23600" cy="10500" r="200" /> 
<polyline fill="none;"
points="23000,10500
23400,10500
23400,10500
" /> 
</g>
<g style="fill:#009F9F; fill-opacity:0.0; 
stroke:#009F9F; stroke-width:50; stroke-opacity:1; 
stroke-linecap:round; stroke-linejoin:round;">
<path d="M24130 11100
L24130 10870
" />
<path d="M24240 10980
L24010 10980
" />
<path d="M23940 10760
L23940 10570
L24060 10670
L24060 10630
L24070 10600
L24080 10590
L24110 10570
L24180 10570
L24210 10590
L24230 10600
L24240 10630
L24240 10710
L24230 10740
L24210 10760
" />
<path d="M24210 10440
L24230 10420
L24240 10440
L24230 10450
L24210 10440
L24240 10440
" />
<path d="M23940 10330
L23940 10140
L24060 10240
L24060 10200
L24070 10170
L24080 10160
L24110 10140
L24180 10140
L24210 10160
L24230 10170
L24240 10200
L24240 10280
L24230 10310
L24210 10330
" />
<path d="M23940 10050
L24240 9950
L23940 9850
" />
</g>
<g style="fill:#009F9F; fill-opacity:0.0; 
stroke:#009F9F; stroke-width:0; stroke-opacity:1; 
stroke-linecap:round; stroke-linejoin:round;">
</g>
<g style="fill:#9F0000; fill-opacity:0.0; 
stroke:#9F0000; stroke-width:60; stroke-opacity:1; 
stroke-linecap:round; stroke-linejoin:round;">
<circle cx="23600" cy="12500" r="200" /> 
<polyline fill="none;"
points="23000,12500
23400,12500
23400,12500
" /> 
</g>
<g style="fill:#009F9F; fill-opacity:0.0; 
stroke:#009F9F; stroke-width:50; stroke-opacity:1; 
stroke-linecap:round; stroke-linejoin:round;">
<path d="M24130 13100
L24130 12870
" />
<path d="M24240 12980
L24010 12980
" />
<path d="M23940 12760
L23940 12570
L24060 12670
L24060 12630
L24070 12600
L24080 12590
L24110 12570
L24180 12570
L24210 12590
L24230 12600
L24240 12630
L24240 12710
L24230 12740
L24210 12760
" />
<path d="M24210 12440
L24230 12420
L24240 12440
L24230 12450
L24210 12440
L24240 12440
" />
<path d="M23940 12330
L23940 12140
L24060 12240
L24060 12200
L24070 12170
L24080 12160
L24110 12140
L24180 12140
L24210 12160
L24230 12170
L24240 12200
L24240 12280
L24230 12310
L24210 12330
" />
<path d="M23940 12050
L24240 11950
L23940 11850
" />
</g>
<g style="fill:#009F9F; fill-opacity:0.0; 
stroke:#009F9F; stroke-width:0; stroke-opacity:1; 
stroke-linecap:round; stroke-linejoin:round;">
</g>
<g style="fill:#9F0000; fill-opacity:0.0; 
stroke:#9F0000; stroke-width:60; stroke-opacity:1; 
stroke-linecap:round; stroke-linejoin:round;">
<rect x="41000" y="6000" width="2000" height="6000" rx="0" />
<circle cx="40650" cy="6500" r="350" /> 
<path d="M40300 6500
L38500 6500
" />
<path d="M39930 6340
L39580 6340
" />
<path d="M39760 6340
L39760 5740
L39700 5830
L39640 5890
L39580 5910
" />
<circle cx="40650" cy="7500" r="350" /> 
<path d="M40300 7500
L38500 7500
" />
<path d="M39580 6800
L39610 6770
L39670 6740
L39810 6740
L39870 6770
L39900 6800
L39930 6860
L39930 6910
L39900 7000
L39560 7340
L39930 7340
" />
<circle cx="40650" cy="8500" r="350" /> 
<path d="M40300 8500
L38500 8500
" />
<path d="M39560 7740
L39930 7740
L39730 7970
L39810 7970
L39870 8000
L39900 8030
L39930 8090
L39930 8230
L39900 8290
L39870 8310
L39810 8340
L39640 8340
L39580 8310
L39560 8290
" />
<circle cx="40650" cy="9500" r="350" /> 
<path d="M40300 9500
L38500 9500
" />
<path d="M39870 8940
L39870 9340
" />
<path d="M39730 8710
L39580 9140
L39960 9140
" />
<circle cx="40650" cy="10500" r="350" /> 
<path d="M40300 10500
L38500 10500
" />
<path d="M39900 9740
L39610 9740
L39580 10030
L39610 10000
L39670 9970
L39810 9970
L39870 10000
L39900 10030
L39930 10090
L39930 10230
L39900 10290
L39870 10310
L39810 10340
L39670 10340
L39610 10310
L39580 10290
" />
<circle cx="40650" cy="11500" r="350" /> 
<path d="M40300 11500
L38500 11500
" />
<path d="M39870 10740
L39760 10740
L39700 10770
L39670 10800
L39610 10890
L39580 11000
L39580 11230
L39610 11290
L39640 11310
L39700 11340
L39810 11340
L39870 11310
L39900 11290
L39930 11230
L39930 11090
L39900 11030
L39870 11000
L39810 10970
L39700 10970
L39640 11000
L39610 11030
L39580 11090
" />
</g>
<g style="fill:#009F9F; fill-opacity:0.0; 
stroke:#009F9F; stroke-width:60; stroke-opacity:1; 
stroke-linecap:round; stroke-linejoin:round;">
<path d="M41710 9430
L41110 9430
L41110 9200
L41140 9140
L41170 9110
L41230 9080
L41310 9080
L41370 9110
L41400 9140
L41430 9200
L41430 9430
" />
<path d="M41110 8880
L41110 8510
L41340 8710
L41340 8630
L41370 8570
L41400 8540
L41460 8510
L41600 8510
L41660 8540
L41680 8570
L41710 8630
L41710 8800
L41680 8860
L41660 8880
" />
<path d="M42680 10390
L42710 10300
L42710 10160
L42680 10100
L42660 10070
L42600 10040
L42540 10040
L42480 10070
L42460 10100
L42430 10160
L42400 10270
L42370 10330
L42340 10360
L42280 10390
L42230 10390
L42170 10360
L42140 10330
L42110 10270
L42110 10130
L42140 10040
" />
<path d="M42400 9790
L42400 9590
" />
<path d="M42710 9500
L42710 9790
L42110 9790
L42110 9500
" />
<path d="M42710 8900
L42430 9100
" />
<path d="M42710 9250
L42110 9250
L42110 9020
L42140 8960
L42170 8930
L42230 8900
L42310 8900
L42370 8930
L42400 8960
L42430 9020
L42430 9250
" />
<path d="M42710 8650
L42110 8650
" />
<path d="M42540 8390
L42540 8100
" />
<path d="M42710 8440
L42110 8240
L42710 8040
" />
<path d="M42710 7560
L42710 7850
L42110 7850
" />
</g>
<g style="fill:#009F9F; fill-opacity:0.0; 
stroke:#009F9F; stroke-width:0; stroke-opacity:1; 
stroke-linecap:round; stroke-linejoin:round;">
</g>
<g style="fill:#9F0000; fill-opacity:0.0; 
stroke:#9F0000; stroke-width:60; stroke-opacity:1; 
stroke-linecap:round; stroke-linejoin:round;">
<polyline fill="none;"
points="38500,6000
38000,6500
38500,7000
38500,6000
" /> 
</g>
<g style="fill:#9F0000; fill-opacity:0.0; 
stroke:#9F0000; stroke-width:0; stroke-opacity:1; 
stroke-linecap:round; stroke-linejoin:round;">
</g>
<g style="fill:#9F0000; fill-opacity:0.0; 
stroke:#9F0000; stroke-width:60; stroke-opacity:1; 
stroke-linecap:round; stroke-linejoin:round;">
<circle cx="37900" cy="8500" r="200" /> 
<polyline fill="none;"
points="38500,8500
38100,8500
38100,8500
" /> 
</g>
<g style="fill:#009F9F; fill-opacity:0.0; 
stroke:#009F9F; stroke-width:50; stroke-opacity:1; 
stroke-linecap:round; stroke-linejoin:round;">
<path d="M37390 9090
L37390 8860
" />
<path d="M37500 8970
L37270 8970
" />
<path d="M37200 8750
L37200 8560
L37320 8660
L37320 8620
L37330 8590
L37340 8580
L37370 8560
L37440 8560
L37470 8580
L37490 8590
L37500 8620
L37500 8700
L37490 8730
L37470 8750
" />
<path d="M37470 8430
L37490 8410
L37500 8430
L37490 8440
L37470 8430
L37500 8430
" />
<path d="M37200 8320
L37200 8130
L37320 8230
L37320 8190
L37330 8160
L37340 8150
L37370 8130
L37440 8130
L37470 8150
L37490 8160
L37500 8190
L37500 8270
L37490 8300
L37470 8320
" />
<path d="M37200 8040
L37500 7940
L37200 7840
" />
</g>
<g style="fill:#009F9F; fill-opacity:0.0; 
stroke:#009F9F; stroke-width:60; stroke-opacity:1; 
stroke-linecap:round; stroke-linejoin:round;">
</g>
<g style="fill:#9F0000; fill-opacity:0.0; 
stroke:#9F0000; stroke-width:60; stroke-opacity:1; 
stroke-linecap:round; stroke-linejoin:round;">
<path d="M34670 9140
L35010 9140
" />
<path d="M34840 9740
L34840 9140
" />
<path d="M35160 9140
L35560 9740
" />
<path d="M35560 9140
L35160 9740
" />
</g>
<g style="fill:#9F0000; fill-opacity:0.0; 
stroke:#9F0000; stroke-width:100; stroke-opacity:1; 
stroke-linecap:round; stroke-linejoin:round;">
<polyline fill="none;"
points="36000,9500
35700,8930
34380,8930
34380,9500
34380,10070
35700,10070
36000,9500
" /> 
</g>
<g style="fill:#9F0000; fill-opacity:0.0; 
stroke:#9F0000; stroke-width:60; stroke-opacity:1; 
stroke-linecap:round; stroke-linejoin:round;">
<path d="M36960 10740
L36760 10460
" />
<path d="M36610 10740
L36610 10140
L36840 10140
L36900 10170
L36930 10200
L36960 10260
L36960 10340
L36930 10400
L36900 10430
L36840 10460
L36610 10460
" />
<path d="M37160 10140
L37560 10740
" />
<path d="M37560 10140
L37160 10740
" />
</g>
<g style="fill:#9F0000; fill-opacity:0.0; 
stroke:#9F0000; stroke-width:100; stroke-opacity:1; 
stroke-linecap:round; stroke-linejoin:round;">
<polyline fill="none;"
points="38000,10500
37700,9930
36240,9930
36240,10500
36240,11070
37700,11070
38000,10500
" /> 
</g>
<g style="fill:#9F0000; fill-opacity:0.0; 
stroke:#9F0000; stroke-width:60; stroke-opacity:1; 
stroke-linecap:round; stroke-linejoin:round;">
</g>
<g style="fill:#009F00; fill-opacity:0.0; 
stroke:#009F00; stroke-width:60; stroke-opacity:1; 
stroke-linecap:round; stroke-linejoin:round;">
<path d="M36000 9500
L38500 9500
" />
<path d="M38500 10500
L38000 10500
" />
</g>
<g style="fill:#9F0000; fill-opacity:0.0; 
stroke:#9F0000; stroke-width:60; stroke-opacity:1; 
stroke-linecap:round; stroke-linejoin:round;">
<path d="M25420 13140
L25760 13140
" />
<path d="M25590 13740
L25590 13140
" />
<path d="M25910 13140
L26310 13740
" />
<path d="M26310 13140
L25910 13740
" />
</g>
<g style="fill:#9F0000; fill-opacity:0.0; 
stroke:#9F0000; stroke-width:100; stroke-opacity:1; 
stroke-linecap:round; stroke-linejoin:round;">
<polyline fill="none;"
points="25000,13500
25300,14070
26620,14070
26620,13500
26620,12930
25300,12930
25000,13500
" /> 
</g>
<g style="fill:#9F0000; fill-opacity:0.0; 
stroke:#9F0000; stroke-width:60; stroke-opacity:1; 
stroke-linecap:round; stroke-linejoin:round;">
<path d="M13960 10740
L13760 10460
" />
<path d="M13610 10740
L13610 10140
L13840 10140
L13900 10170
L13930 10200
L13960 10260
L13960 10340
L13930 10400
L13900 10430
L13840 10460
L13610 10460
" />
<path d="M14160 10140
L14560 10740
" />
<path d="M14560 10140
L14160 10740
" />
</g>
<g style="fill:#9F0000; fill-opacity:0.0; 
stroke:#9F0000; stroke-width:100; stroke-opacity:1; 
stroke-linecap:round; stroke-linejoin:round;">
<polyline fill="none;"
points="15000,10500
14700,9930
13240,9930
13240,10500
13240,11070
14700,11070
15000,10500
" /> 
</g>
<g style="fill:#9F0000; fill-opacity:0.0; 
stroke:#9F0000; stroke-width:60; stroke-opacity:1; 
stroke-linecap:round; stroke-linejoin:round;">
</g>
<g style="fill:#009F00; fill-opacity:0.0; 
stroke:#009F00; stroke-width:60; stroke-opacity:1; 
stroke-linecap:round; stroke-linejoin:round;">
<path d="M25000 13500
L23000 13500
" />
</g>
<g style="fill:#009F00; fill-opacity:0.0; 
stroke:#009F00; stroke-width:0; stroke-opacity:1; 
stroke-linecap:round; stroke-linejoin:round;">
</g>
<g style="fill:#9F0000; fill-opacity:0.0; 
stroke:#9F0000; stroke-width:60; stroke-opacity:1; 
stroke-linecap:round; stroke-linejoin:round;">
<polyline fill="none;"
points="15000,21000
15500,20500
15000,20000
15000,21000
" /> 
</g>
<g style="fill:#9F0000; fill-opacity:0.0; 
stroke:#9F0000; stroke-width:0; stroke-opacity:1; 
stroke-linecap:round; stroke-linejoin:round;">
</g>
<g style="fill:#9F0000; fill-opacity:0.0; 
stroke:#9F0000; stroke-width:60; stroke-opacity:1; 
stroke-linecap:round; stroke-linejoin:round;">
<circle cx="6400" cy="19500" r="200" /> 
<polyline fill="none;"
points="7000,19500
6600,19500
6600,19500
" /> 
</g>
<g style="fill:#009F9F; fill-opacity:0.0; 
stroke:#009F9F; stroke-width:50; stroke-opacity:1; 
stroke-linecap:round; stroke-linejoin:round;">
<path d="M5890 20090
L5890 19860
" />
<path d="M6000 19970
L5770 19970
" />
<path d="M5700 19750
L5700 19560
L5820 19660
L5820 19620
L5830 19590
L5840 19580
L5870 19560
L5940 19560
L5970 19580
L5990 19590
L6000 19620
L6000 19700
L5990 19730
L5970 19750
" />
<path d="M5970 19430
L5990 19410
L6000 19430
L5990 19440
L5970 19430
L6000 19430
" />
<path d="M5700 19320
L5700 19130
L5820 19230
L5820 19190
L5830 19160
L5840 19150
L5870 19130
L5940 19130
L5970 19150
L5990 19160
L6000 19190
L6000 19270
L5990 19300
L5970 19320
" />
<path d="M5700 19040
L6000 18940
L5700 18840
" />
</g>
<g style="fill:#009F9F; fill-opacity:0.0; 
stroke:#009F9F; stroke-width:0; stroke-opacity:1; 
stroke-linecap:round; stroke-linejoin:round;">
</g>
<g style="fill:#9F0000; fill-opacity:0.0; 
stroke:#9F0000; stroke-width:60; stroke-opacity:1; 
stroke-linecap:round; stroke-linejoin:round;">
<rect x="26800" y="10900" width="3400" height="100" rx="0" />
<polyline fill="none;"
points="28100,10900
28200,10600
28800,10600
28900,10900
" /> 
<circle cx="27150" cy="11500" r="350" /> 
<path d="M26800 11500
L25500 11500
" />
<circle cx="29850" cy="11500" r="350" /> 
<path d="M30200 11500
L31500 11500
" />
</g>
<g style="fill:#009F9F; fill-opacity:0.0; 
stroke:#009F9F; stroke-width:60; stroke-opacity:1; 
stroke-linecap:round; stroke-linejoin:round;">
<path d="M29340 10550
L29410 10570
L29530 10570
L29570 10550
L29600 10520
L29620 10480
L29620 10430
L29600 10380
L29570 10360
L29530 10330
L29430 10310
L29380 10290
L29360 10260
L29340 10220
L29340 10170
L29360 10120
L29380 10100
L29430 10070
L29550 10070
L29620 10100
" />
<path d="M29790 10070
L29910 10570
L30010 10220
L30100 10570
L30220 10070
" />
<path d="M30670 10570
L30390 10570
" />
<path d="M30530 10570
L30530 10070
L30480 10140
L30430 10190
L30390 10220
" />
<path d="M27770 12470
L27610 12230
" />
<path d="M27490 12470
L27490 11970
L27680 11970
L27730 12000
L27750 12020
L27770 12070
L27770 12140
L27750 12190
L27730 12210
L27680 12230
L27490 12230
" />
<path d="M27990 12210
L28160 12210
" />
<path d="M28230 12470
L27990 12470
L27990 11970
L28230 11970
" />
<path d="M28420 12450
L28490 12470
L28610 12470
L28650 12450
L28680 12420
L28700 12380
L28700 12330
L28680 12280
L28650 12260
L28610 12230
L28510 12210
L28460 12190
L28440 12160
L28420 12120
L28420 12070
L28440 12020
L28460 12000
L28510 11970
L28630 11970
L28700 12000
" />
<path d="M28920 12210
L29090 12210
" />
<path d="M29160 12470
L28920 12470
L28920 11970
L29160 11970
" />
<path d="M29300 11970
L29580 11970
" />
<path d="M29440 12470
L29440 11970
" />
</g>
<g style="fill:#009F9F; fill-opacity:0.0; 
stroke:#009F9F; stroke-width:0; stroke-opacity:1; 
stroke-linecap:round; stroke-linejoin:round;">
</g>
<g style="fill:#9F0000; fill-opacity:0.0; 
stroke:#9F0000; stroke-width:60; stroke-opacity:1; 
stroke-linecap:round; stroke-linejoin:round;">
<polyline fill="none;"
points="33000,12000
33500,11500
33000,11000
33000,12000
" /> 
</g>
<g style="fill:#009F00; fill-opacity:0.0; 
stroke:#009F00; stroke-width:60; stroke-opacity:1; 
stroke-linecap:round; stroke-linejoin:round;">
<path d="M23000 11500
L25500 11500
" />
<path d="M31500 11500
L33000 11500
" />
</g>
<g style="fill:#009F00; fill-opacity:0.0; 
stroke:#009F00; stroke-width:0; stroke-opacity:1; 
stroke-linecap:round; stroke-linejoin:round;">
</g>
<g style="fill:#9F0000; fill-opacity:0.0; 
stroke:#9F0000; stroke-width:120; stroke-opacity:1; 
stroke-linecap:round; stroke-linejoin:round;">
<rect x="25100" y="7500" width="800" height="3000" rx="0" />
</g>
<g style="fill:#9F0000; fill-opacity:0.0; 
stroke:#9F0000; stroke-width:60; stroke-opacity:1; 
stroke-linecap:round; stroke-linejoin:round;">
<path d="M25500 7500
L25500 6500
" />
</g>
<g style="fill:#009F9F; fill-opacity:0.0; 
stroke:#009F9F; stroke-width:60; stroke-opacity:1; 
stroke-linecap:round; stroke-linejoin:round;">
</g>
<g style="fill:#9F0000; fill-opacity:0.0; 
stroke:#9F0000; stroke-width:60; stroke-opacity:1; 
stroke-linecap:round; stroke-linejoin:round;">
<path d="M25500 10500
L25500 11500
" />
</g>
<g style="fill:#009F9F; fill-opacity:0.0; 
stroke:#009F9F; stroke-width:60; stroke-opacity:1; 
stroke-linecap:round; stroke-linejoin:round;">
<path d="M26430 9070
L26240 9200
" />
<path d="M26430 9290
L26030 9290
L26030 9140
L26050 9100
L26070 9090
L26110 9070
L26170 9070
L26200 9090
L26220 9100
L26240 9140
L26240 9290
" />
<path d="M26430 8690
L26430 8910
" />
<path d="M26430 8800
L26030 8800
L26090 8840
L26130 8880
L26150 8910
" />
<path d="M25700 9270
L25700 9490
" />
<path d="M25700 9380
L25300 9380
L25360 9420
L25400 9460
L25420 9490
" />
<path d="M25300 9020
L25300 8980
L25320 8940
L25340 8920
L25380 8900
L25450 8890
L25550 8890
L25630 8900
L25660 8920
L25680 8940
L25700 8980
L25700 9020
L25680 9060
L25660 9080
L25630 9090
L25550 9110
L25450 9110
L25380 9090
L25340 9080
L25320 9060
L25300 9020
" />
<path d="M25700 8710
L25300 8710
" />
<path d="M25700 8490
L25470 8660
" />
<path d="M25300 8490
L25530 8710
" />
</g>
<g style="fill:#009F9F; fill-opacity:0.0; 
stroke:#009F9F; stroke-width:0; stroke-opacity:1; 
stroke-linecap:round; stroke-linejoin:round;">
</g>
<g style="fill:#9F0000; fill-opacity:0.0; 
stroke:#9F0000; stroke-width:60; stroke-opacity:1; 
stroke-linecap:round; stroke-linejoin:round;">
<circle cx="25500" cy="5900" r="200" /> 
<polyline fill="none;"
points="25500,6500
25500,6100
25500,6100
" /> 
</g>
<g style="fill:#009F9F; fill-opacity:0.0; 
stroke:#009F9F; stroke-width:50; stroke-opacity:1; 
stroke-linecap:round; stroke-linejoin:round;">
<path d="M24900 5390
L25130 5390
" />
<path d="M25020 5500
L25020 5270
" />
<path d="M25240 5200
L25430 5200
L25330 5320
L25370 5320
L25400 5330
L25410 5340
L25430 5370
L25430 5440
L25410 5470
L25400 5490
L25370 5500
L25290 5500
L25260 5490
L25240 5470
" />
<path d="M25560 5470
L25580 5490
L25560 5500
L25550 5490
L25560 5470
L25560 5500
" />
<path d="M25670 5200
L25860 5200
L25760 5320
L25800 5320
L25830 5330
L25840 5340
L25860 5370
L25860 5440
L25840 5470
L25830 5490
L25800 5500
L25720 5500
L25690 5490
L25670 5470
" />
<path d="M25950 5200
L26050 5500
L26150 5200
" />
</g>
<g style="fill:#009F9F; fill-opacity:0.0; 
stroke:#009F9F; stroke-width:0; stroke-opacity:1; 
stroke-linecap:round; stroke-linejoin:round;">
</g>
<g style="fill:#9F0000; fill-opacity:0.0; 
stroke:#9F0000; stroke-width:60; stroke-opacity:1; 
stroke-linecap:round; stroke-linejoin:round;">
<polyline fill="none;"
points="20000,16000
19500,16500
20000,17000
20000,16000
" /> 
</g>
<g style="fill:#009F00; fill-opacity:0.0; 
stroke:#009F00; stroke-width:60; stroke-opacity:1; 
stroke-linecap:round; stroke-linejoin:round;">
<path d="M20000 16500
L21500 16500
" />
<path d="M38260 11260
L38740 11740
" />
<path d="M38740 11260
L38260 11740
" />
</g>
<g style="fill:#0000BF; fill-opacity:0.0; 
stroke:#0000BF; stroke-width:60; stroke-opacity:1; 
stroke-linecap:round; stroke-linejoin:round;">
<path d="M38260 7260
L38740 7740
" />
<path d="M38740 7260
L38260 7740
" />
<path d="M6760 20260
L7240 20740
" />
<path d="M7240 20260
L6760 20740
" />
</g>
<g style="fill:#0000BF; fill-opacity:0.0; 
stroke:#0000BF; stroke-width:0; stroke-opacity:1; 
stroke-linecap:round; stroke-linejoin:round;">
</g>
<g style="fill:#9F0000; fill-opacity:0.0; 
stroke:#9F0000; stroke-width:60; stroke-opacity:1; 
stroke-linecap:round; stroke-linejoin:round;">
<rect x="12000" y="22500" width="2000" height="3000" rx="0" />
<circle cx="11650" cy="23000" r="350" /> 
<path d="M11300 23000
L9500 23000
" />
<path d="M10930 22840
L10580 22840
" />
<path d="M10760 22840
L10760 22240
L10700 22330
L10640 22390
L10580 22410
" />
<circle cx="11650" cy="25000" r="350" /> 
<path d="M11300 25000
L9500 25000
" />
<path d="M10580 24300
L10610 24270
L10670 24240
L10810 24240
L10870 24270
L10900 24300
L10930 24360
L10930 24410
L10900 24500
L10560 24840
L10930 24840
" />
</g>
<g style="fill:#009F9F; fill-opacity:0.0; 
stroke:#009F9F; stroke-width:60; stroke-opacity:1; 
stroke-linecap:round; stroke-linejoin:round;">
<path d="M12630 24290
L12230 24290
L12230 24140
L12250 24100
L12270 24090
L12310 24070
L12370 24070
L12400 24090
L12420 24100
L12440 24140
L12440 24290
" />
<path d="M12270 23910
L12250 23890
L12230 23860
L12230 23760
L12250 23720
L12270 23700
L12310 23690
L12350 23690
L12400 23700
L12630 23930
L12630 23690
" />
<path d="M13420 25290
L13440 25230
L13460 25220
L13500 25200
L13560 25200
L13590 25220
L13610 25230
L13630 25270
L13630 25420
L13230 25420
L13230 25290
L13250 25250
L13270 25230
L13310 25220
L13350 25220
L13380 25230
L13400 25250
L13420 25290
L13420 25420
" />
<path d="M13630 24800
L13440 24930
" />
<path d="M13630 25020
L13230 25020
L13230 24870
L13250 24830
L13270 24820
L13310 24800
L13370 24800
L13400 24820
L13420 24830
L13440 24870
L13440 25020
" />
<path d="M13420 24620
L13420 24490
" />
<path d="M13630 24430
L13630 24620
L13230 24620
L13230 24430
" />
<path d="M13520 24280
L13520 24090
" />
<path d="M13630 24320
L13230 24190
L13630 24060
" />
<path d="M13630 23920
L13230 23920
" />
<path d="M13630 23700
L13400 23870
" />
<path d="M13230 23700
L13460 23920
" />
<path d="M13230 23450
L13230 23370
L13250 23330
L13290 23300
L13370 23280
L13500 23280
L13570 23300
L13610 23330
L13630 23370
L13630 23450
L13610 23490
L13570 23520
L13500 23540
L13370 23540
L13290 23520
L13250 23490
L13230 23450
" />
<path d="M13230 23100
L13560 23100
L13590 23090
L13610 23070
L13630 23030
L13630 22950
L13610 22910
L13590 22900
L13560 22880
L13230 22880
" />
<path d="M13230 22740
L13230 22510
" />
<path d="M13630 22630
L13230 22630
" />
</g>
<g style="fill:#9F0000; fill-opacity:0.0; 
stroke:#9F0000; stroke-width:60; stroke-opacity:1; 
stroke-linecap:round; stroke-linejoin:round;">
<path d="M10410 11170
L10350 11140
L10260 11140
L10180 11170
L10120 11230
L10090 11290
L10060 11400
L10060 11490
L10090 11600
L10120 11660
L10180 11710
L10260 11740
L10320 11740
L10410 11710
L10440 11690
L10440 11490
L10320 11490
" />
<path d="M10690 11740
L10690 11140
L10920 11140
L10980 11170
L11010 11200
L11040 11260
L11040 11340
L11010 11400
L10980 11430
L10920 11460
L10690 11460
" />
<path d="M11290 11740
L11290 11140
" />
<path d="M11700 11140
L11810 11140
L11870 11170
L11930 11230
L11950 11340
L11950 11540
L11930 11660
L11870 11710
L11810 11740
L11700 11740
L11640 11710
L11580 11660
L11550 11540
L11550 11340
L11580 11230
L11640 11170
L11700 11140
" />
<path d="M12330 11140
L12380 11140
L12440 11170
L12470 11200
L12500 11260
L12530 11370
L12530 11510
L12500 11630
L12470 11690
L12440 11710
L12380 11740
L12330 11740
L12270 11710
L12240 11690
L12210 11630
L12180 11510
L12180 11370
L12210 11260
L12240 11200
L12270 11170
L12330 11140
" />
</g>
<g style="fill:#9F0000; fill-opacity:0.0; 
stroke:#9F0000; stroke-width:100; stroke-opacity:1; 
stroke-linecap:round; stroke-linejoin:round;">
<polyline fill="none;"
points="13000,11500
12700,10930
9720,10930
9720,11500
9720,12070
12700,12070
13000,11500
" /> 
</g>
<g style="fill:#9F0000; fill-opacity:0.0; 
stroke:#9F0000; stroke-width:60; stroke-opacity:1; 
stroke-linecap:round; stroke-linejoin:round;">
<path d="M6910 12170
L6850 12140
L6760 12140
L6680 12170
L6620 12230
L6590 12290
L6560 12400
L6560 12490
L6590 12600
L6620 12660
L6680 12710
L6760 12740
L6820 12740
L6910 12710
L6940 12690
L6940 12490
L6820 12490
" />
<path d="M7190 12740
L7190 12140
L7420 12140
L7480 12170
L7510 12200
L7540 12260
L7540 12340
L7510 12400
L7480 12430
L7420 12460
L7190 12460
" />
<path d="M7790 12740
L7790 12140
" />
<path d="M8200 12140
L8310 12140
L8370 12170
L8430 12230
L8450 12340
L8450 12540
L8430 12660
L8370 12710
L8310 12740
L8200 12740
L8140 12710
L8080 12660
L8050 12540
L8050 12340
L8080 12230
L8140 12170
L8200 12140
" />
<path d="M8680 12200
L8710 12170
L8770 12140
L8910 12140
L8970 12170
L9000 12200
L9030 12260
L9030 12310
L9000 12400
L8660 12740
L9030 12740
" />
</g>
<g style="fill:#9F0000; fill-opacity:0.0; 
stroke:#9F0000; stroke-width:100; stroke-opacity:1; 
stroke-linecap:round; stroke-linejoin:round;">
<polyline fill="none;"
points="9500,12500
9200,11930
6220,11930
6220,12500
6220,13070
9200,13070
9500,12500
" /> 
</g>
<g style="fill:#9F0000; fill-opacity:0.0; 
stroke:#9F0000; stroke-width:60; stroke-opacity:1; 
stroke-linecap:round; stroke-linejoin:round;">
</g>
<g style="fill:#009F00; fill-opacity:0.0; 
stroke:#009F00; stroke-width:60; stroke-opacity:1; 
stroke-linecap:round; stroke-linejoin:round;">
<path d="M13000 11500
L15000 11500
" />
<path d="M15000 12500
L9500 12500
" />
</g>
<g style="fill:#9F0000; fill-opacity:0.0; 
stroke:#9F0000; stroke-width:60; stroke-opacity:1; 
stroke-linecap:round; stroke-linejoin:round;">
<path d="M29320 16170
L29260 16140
L29170 16140
L29090 16170
L29030 16230
L29000 16290
L28970 16400
L28970 16490
L29000 16600
L29030 16660
L29090 16710
L29170 16740
L29230 16740
L29320 16710
L29350 16690
L29350 16490
L29230 16490
" />
<path d="M29600 16740
L29600 16140
L29830 16140
L29890 16170
L29920 16200
L29950 16260
L29950 16340
L29920 16400
L29890 16430
L29830 16460
L29600 16460
" />
<path d="M30200 16740
L30200 16140
" />
<path d="M30610 16140
L30720 16140
L30780 16170
L30840 16230
L30860 16340
L30860 16540
L30840 16660
L30780 16710
L30720 16740
L30610 16740
L30550 16710
L30490 16660
L30460 16540
L30460 16340
L30490 16230
L30550 16170
L30610 16140
" />
<path d="M31240 16140
L31290 16140
L31350 16170
L31380 16200
L31410 16260
L31440 16370
L31440 16510
L31410 16630
L31380 16690
L31350 16710
L31290 16740
L31240 16740
L31180 16710
L31150 16690
L31120 16630
L31090 16510
L31090 16370
L31120 16260
L31150 16200
L31180 16170
L31240 16140
" />
</g>
<g style="fill:#9F0000; fill-opacity:0.0; 
stroke:#9F0000; stroke-width:100; stroke-opacity:1; 
stroke-linecap:round; stroke-linejoin:round;">
<polyline fill="none;"
points="28500,16500
28800,17070
31780,17070
31780,16500
31780,15930
28800,15930
28500,16500
" /> 
</g>
<g style="fill:#9F0000; fill-opacity:0.0; 
stroke:#9F0000; stroke-width:60; stroke-opacity:1; 
stroke-linecap:round; stroke-linejoin:round;">
</g>
<g style="fill:#009F00; fill-opacity:0.0; 
stroke:#009F00; stroke-width:60; stroke-opacity:1; 
stroke-linecap:round; stroke-linejoin:round;">
<path d="M28500 16500
L27500 16500
" />
</g>
<g style="fill:#9F0000; fill-opacity:0.0; 
stroke:#9F0000; stroke-width:60; stroke-opacity:1; 
stroke-linecap:round; stroke-linejoin:round;">
<path d="M17820 19170
L17760 19140
L17670 19140
L17590 19170
L17530 19230
L17500 19290
L17470 19400
L17470 19490
L17500 19600
L17530 19660
L17590 19710
L17670 19740
L17730 19740
L17820 19710
L17850 19690
L17850 19490
L17730 19490
" />
<path d="M18100 19740
L18100 19140
L18330 19140
L18390 19170
L18420 19200
L18450 19260
L18450 19340
L18420 19400
L18390 19430
L18330 19460
L18100 19460
" />
<path d="M18700 19740
L18700 19140
" />
<path d="M19110 19140
L19220 19140
L19280 19170
L19340 19230
L19360 19340
L19360 19540
L19340 19660
L19280 19710
L19220 19740
L19110 19740
L19050 19710
L18990 19660
L18960 19540
L18960 19340
L18990 19230
L19050 19170
L19110 19140
" />
<path d="M19590 19200
L19620 19170
L19680 19140
L19820 19140
L19880 19170
L19910 19200
L19940 19260
L19940 19310
L19910 19400
L19570 19740
L19940 19740
" />
</g>
<g style="fill:#9F0000; fill-opacity:0.0; 
stroke:#9F0000; stroke-width:100; stroke-opacity:1; 
stroke-linecap:round; stroke-linejoin:round;">
<polyline fill="none;"
points="17000,19500
17300,20070
20280,20070
20280,19500
20280,18930
17300,18930
17000,19500
" /> 
</g>
<g style="fill:#9F0000; fill-opacity:0.0; 
stroke:#9F0000; stroke-width:60; stroke-opacity:1; 
stroke-linecap:round; stroke-linejoin:round;">
<path d="M6910 22670
L6850 22640
L6760 22640
L6680 22670
L6620 22730
L6590 22790
L6560 22900
L6560 22990
L6590 23100
L6620 23160
L6680 23210
L6760 23240
L6820 23240
L6910 23210
L6940 23190
L6940 22990
L6820 22990
" />
<path d="M7190 23240
L7190 22640
L7420 22640
L7480 22670
L7510 22700
L7540 22760
L7540 22840
L7510 22900
L7480 22930
L7420 22960
L7190 22960
" />
<path d="M7790 23240
L7790 22640
" />
<path d="M8200 22640
L8310 22640
L8370 22670
L8430 22730
L8450 22840
L8450 23040
L8430 23160
L8370 23210
L8310 23240
L8200 23240
L8140 23210
L8080 23160
L8050 23040
L8050 22840
L8080 22730
L8140 22670
L8200 22640
" />
<path d="M8830 22640
L8880 22640
L8940 22670
L8970 22700
L9000 22760
L9030 22870
L9030 23010
L9000 23130
L8970 23190
L8940 23210
L8880 23240
L8830 23240
L8770 23210
L8740 23190
L8710 23130
L8680 23010
L8680 22870
L8710 22760
L8740 22700
L8770 22670
L8830 22640
" />
</g>
<g style="fill:#9F0000; fill-opacity:0.0; 
stroke:#9F0000; stroke-width:100; stroke-opacity:1; 
stroke-linecap:round; stroke-linejoin:round;">
<polyline fill="none;"
points="9500,23000
9200,22430
6220,22430
6220,23000
6220,23570
9200,23570
9500,23000
" /> 
</g>
<g style="fill:#9F0000; fill-opacity:0.0; 
stroke:#9F0000; stroke-width:60; stroke-opacity:1; 
stroke-linecap:round; stroke-linejoin:round;">
<path d="M6910 24670
L6850 24640
L6760 24640
L6680 24670
L6620 24730
L6590 24790
L6560 24900
L6560 24990
L6590 25100
L6620 25160
L6680 25210
L6760 25240
L6820 25240
L6910 25210
L6940 25190
L6940 24990
L6820 24990
" />
<path d="M7190 25240
L7190 24640
L7420 24640
L7480 24670
L7510 24700
L7540 24760
L7540 24840
L7510 24900
L7480 24930
L7420 24960
L7190 24960
" />
<path d="M7790 25240
L7790 24640
" />
<path d="M8200 24640
L8310 24640
L8370 24670
L8430 24730
L8450 24840
L8450 25040
L8430 25160
L8370 25210
L8310 25240
L8200 25240
L8140 25210
L8080 25160
L8050 25040
L8050 24840
L8080 24730
L8140 24670
L8200 24640
" />
<path d="M8680 24700
L8710 24670
L8770 24640
L8910 24640
L8970 24670
L9000 24700
L9030 24760
L9030 24810
L9000 24900
L8660 25240
L9030 25240
" />
</g>
<g style="fill:#9F0000; fill-opacity:0.0; 
stroke:#9F0000; stroke-width:100; stroke-opacity:1; 
stroke-linecap:round; stroke-linejoin:round;">
<polyline fill="none;"
points="9500,25000
9200,24430
6220,24430
6220,25000
6220,25570
9200,25570
9500,25000
" /> 
</g>
<g style="fill:#9F0000; fill-opacity:0.0; 
stroke:#9F0000; stroke-width:0; stroke-opacity:1; 
stroke-linecap:round; stroke-linejoin:round;">
</g>
<g style="fill:#9F0000; fill-opacity:0.0; 
stroke:#9F0000; stroke-width:60; stroke-opacity:1; 
stroke-linecap:round; stroke-linejoin:round;">
<rect x="31000" y="22000" width="2000" height="4000" rx="0" />
<circle cx="30650" cy="22500" r="350" /> 
<path d="M30300 22500
L28500 22500
" />
<path d="M29890 22350
L29610 22350
" />
<path d="M29750 22350
L29750 21850
L29700 21920
L29650 21970
L29610 22000
" />
<circle cx="30650" cy="23500" r="350" /> 
<path d="M30300 23500
L28500 23500
" />
<path d="M29610 22900
L29630 22880
L29680 22850
L29800 22850
L29840 22880
L29870 22900
L29890 22950
L29890 23000
L29870 23070
L29580 23350
L29890 23350
" />
<circle cx="30650" cy="24500" r="350" /> 
<path d="M30300 24500
L28500 24500
" />
<path d="M29580 23850
L29890 23850
L29720 24040
L29800 24040
L29840 24070
L29870 24090
L29890 24140
L29890 24260
L29870 24300
L29840 24330
L29800 24350
L29650 24350
L29610 24330
L29580 24300
" />
<circle cx="30650" cy="25500" r="350" /> 
<path d="M30300 25500
L28500 25500
" />
<path d="M29840 25020
L29840 25350
" />
<path d="M29720 24830
L29610 25190
L29910 25190
" />
</g>
<g style="fill:#009F9F; fill-opacity:0.0; 
stroke:#009F9F; stroke-width:60; stroke-opacity:1; 
stroke-linecap:round; stroke-linejoin:round;">
<path d="M31670 24370
L31170 24370
L31170 24180
L31200 24130
L31220 24110
L31270 24090
L31340 24090
L31390 24110
L31410 24130
L31430 24180
L31430 24370
" />
<path d="M31170 23630
L31170 23870
L31410 23890
L31390 23870
L31360 23820
L31360 23700
L31390 23660
L31410 23630
L31460 23610
L31580 23610
L31620 23630
L31650 23660
L31670 23700
L31670 23820
L31650 23870
L31620 23890
" />
<path d="M32670 25660
L32170 25660
L32670 25380
L32170 25380
" />
<path d="M32410 25140
L32410 24970
" />
<path d="M32670 24900
L32670 25140
L32170 25140
L32170 24900
" />
<path d="M32170 24600
L32170 24500
L32200 24450
L32240 24410
L32340 24380
L32510 24380
L32600 24410
L32650 24450
L32670 24500
L32670 24600
L32650 24640
L32600 24690
L32510 24710
L32340 24710
L32240 24690
L32200 24640
L32170 24600
" />
<path d="M32670 24170
L32170 24170
L32170 23980
L32200 23930
L32220 23910
L32270 23890
L32340 23890
L32390 23910
L32410 23930
L32430 23980
L32430 24170
" />
<path d="M32670 23670
L32170 23670
" />
<path d="M32170 23480
L32670 23150
" />
<path d="M32170 23150
L32670 23480
" />
<path d="M32410 22950
L32410 22780
" />
<path d="M32670 22710
L32670 22950
L32170 22950
L32170 22710
" />
<path d="M32670 22260
L32670 22500
L32170 22500
" />
</g>
<g style="fill:#9F0000; fill-opacity:0.0; 
stroke:#9F0000; stroke-width:60; stroke-opacity:1; 
stroke-linecap:round; stroke-linejoin:round;">
<path d="M23910 24170
L23850 24140
L23760 24140
L23680 24170
L23620 24230
L23590 24290
L23560 24400
L23560 24490
L23590 24600
L23620 24660
L23680 24710
L23760 24740
L23820 24740
L23910 24710
L23940 24690
L23940 24490
L23820 24490
" />
<path d="M24190 24740
L24190 24140
L24420 24140
L24480 24170
L24510 24200
L24540 24260
L24540 24340
L24510 24400
L24480 24430
L24420 24460
L24190 24460
" />
<path d="M24790 24740
L24790 24140
" />
<path d="M25200 24140
L25310 24140
L25370 24170
L25430 24230
L25450 24340
L25450 24540
L25430 24660
L25370 24710
L25310 24740
L25200 24740
L25140 24710
L25080 24660
L25050 24540
L25050 24340
L25080 24230
L25140 24170
L25200 24140
" />
<path d="M25680 24200
L25710 24170
L25770 24140
L25910 24140
L25970 24170
L26000 24200
L26030 24260
L26030 24310
L26000 24400
L25660 24740
L26030 24740
" />
</g>
<g style="fill:#9F0000; fill-opacity:0.0; 
stroke:#9F0000; stroke-width:100; stroke-opacity:1; 
stroke-linecap:round; stroke-linejoin:round;">
<polyline fill="none;"
points="26500,24500
26200,23930
23220,23930
23220,24500
23220,25070
26200,25070
26500,24500
" /> 
</g>
<g style="fill:#9F0000; fill-opacity:0.0; 
stroke:#9F0000; stroke-width:0; stroke-opacity:1; 
stroke-linecap:round; stroke-linejoin:round;">
</g>
<g style="fill:#9F0000; fill-opacity:0.0; 
stroke:#9F0000; stroke-width:60; stroke-opacity:1; 
stroke-linecap:round; stroke-linejoin:round;">
<polyline fill="none;"
points="28500,25000
28000,25500
28500,26000
28500,25000
" /> 
</g>
<g style="fill:#9F0000; fill-opacity:0.0; 
stroke:#9F0000; stroke-width:0; stroke-opacity:1; 
stroke-linecap:round; stroke-linejoin:round;">
</g>
<g style="fill:#9F0000; fill-opacity:0.0; 
stroke:#9F0000; stroke-width:60; stroke-opacity:1; 
stroke-linecap:round; stroke-linejoin:round;">
<circle cx="27900" cy="23500" r="200" /> 
<polyline fill="none;"
points="28500,23500
28100,23500
28100,23500
" /> 
</g>
<g style="fill:#009F9F; fill-opacity:0.0; 
stroke:#009F9F; stroke-width:50; stroke-opacity:1; 
stroke-linecap:round; stroke-linejoin:round;">
<path d="M27390 24090
L27390 23860
" />
<path d="M27500 23970
L27270 23970
" />
<path d="M27200 23750
L27200 23560
L27320 23660
L27320 23620
L27330 23590
L27340 23580
L27370 23560
L27440 23560
L27470 23580
L27490 23590
L27500 23620
L27500 23700
L27490 23730
L27470 23750
" />
<path d="M27470 23430
L27490 23410
L27500 23430
L27490 23440
L27470 23430
L27500 23430
" />
<path d="M27200 23320
L27200 23130
L27320 23230
L27320 23190
L27330 23160
L27340 23150
L27370 23130
L27440 23130
L27470 23150
L27490 23160
L27500 23190
L27500 23270
L27490 23300
L27470 23320
" />
<path d="M27200 23040
L27500 22940
L27200 22840
" />
</g>
<g style="fill:#009F9F; fill-opacity:0.0; 
stroke:#009F9F; stroke-width:0; stroke-opacity:1; 
stroke-linecap:round; stroke-linejoin:round;">
</g>
<g style="fill:#9F0000; fill-opacity:0.0; 
stroke:#9F0000; stroke-width:60; stroke-opacity:1; 
stroke-linecap:round; stroke-linejoin:round;">
<polyline fill="none;"
points="28500,22000
28000,22500
28500,23000
28500,22000
" /> 
</g>
<g style="fill:#009F00; fill-opacity:0.0; 
stroke:#009F00; stroke-width:60; stroke-opacity:1; 
stroke-linecap:round; stroke-linejoin:round;">
<path d="M28500 24500
L26500 24500
" />
</g>
<g style="fill:#009F00; fill-opacity:0.0; 
stroke:#009F00; stroke-width:0; stroke-opacity:1; 
stroke-linecap:round; stroke-linejoin:round;">
</g>
<g style="fill:#9F0000; fill-opacity:0.0; 
stroke:#9F0000; stroke-width:60; stroke-opacity:1; 
stroke-linecap:round; stroke-linejoin:round;">
<circle cx="43600" cy="18500" r="200" /> 
<polyline fill="none;"
points="43000,18500
43400,18500
43400,18500
" /> 
</g>
<g style="fill:#009F9F; fill-opacity:0.0; 
stroke:#009F9F; stroke-width:50; stroke-opacity:1; 
stroke-linecap:round; stroke-linejoin:round;">
<path d="M44130 19100
L44130 18870
" />
<path d="M44240 18980
L44010 18980
" />
<path d="M43940 18760
L43940 18570
L44060 18670
L44060 18630
L44070 18600
L44080 18590
L44110 18570
L44180 18570
L44210 18590
L44230 18600
L44240 18630
L44240 18710
L44230 18740
L44210 18760
" />
<path d="M44210 18440
L44230 18420
L44240 18440
L44230 18450
L44210 18440
L44240 18440
" />
<path d="M43940 18330
L43940 18140
L44060 18240
L44060 18200
L44070 18170
L44080 18160
L44110 18140
L44180 18140
L44210 18160
L44230 18170
L44240 18200
L44240 18280
L44230 18310
L44210 18330
" />
<path d="M43940 18050
L44240 17950
L43940 17850
" />
</g>
<g style="fill:#009F9F; fill-opacity:0.0; 
stroke:#009F9F; stroke-width:0; stroke-opacity:1; 
stroke-linecap:round; stroke-linejoin:round;">
</g>
<g style="fill:#9F0000; fill-opacity:0.0; 
stroke:#9F0000; stroke-width:60; stroke-opacity:1; 
stroke-linecap:round; stroke-linejoin:round;">
<polyline fill="none;"
points="35000,18000
34500,18500
35000,19000
35000,18000
" /> 
</g>
<g style="fill:#9F0000; fill-opacity:0.0; 
stroke:#9F0000; stroke-width:0; stroke-opacity:1; 
stroke-linecap:round; stroke-linejoin:round;">
</g>
<g style="fill:#9F0000; fill-opacity:0.0; 
stroke:#9F0000; stroke-width:200; stroke-opacity:1; 
stroke-linecap:round; stroke-linejoin:round;">
<polyline fill="none;"
points="40300,19300
40300,17700
" /> 
<polyline fill="none;"
points="39700,19300
39700,17700
" /> 
</g>
<g style="fill:#9F0000; fill-opacity:0.0; 
stroke:#9F0000; stroke-width:60; stroke-opacity:1; 
stroke-linecap:round; stroke-linejoin:round;">
<path d="M39700 18500
L38000 18500
" />
</g>
<g style="fill:#009F9F; fill-opacity:0.0; 
stroke:#009F9F; stroke-width:60; stroke-opacity:1; 
stroke-linecap:round; stroke-linejoin:round;">
</g>
<g style="fill:#9F0000; fill-opacity:0.0; 
stroke:#9F0000; stroke-width:60; stroke-opacity:1; 
stroke-linecap:round; stroke-linejoin:round;">
<path d="M40300 18500
L42000 18500
" />
</g>
<g style="fill:#009F9F; fill-opacity:0.0; 
stroke:#009F9F; stroke-width:60; stroke-opacity:1; 
stroke-linecap:round; stroke-linejoin:round;">
<path d="M39090 18180
L39110 18200
L39130 18250
L39130 18290
L39110 18350
L39070 18390
L39040 18400
L38960 18420
L38900 18420
L38830 18400
L38790 18390
L38750 18350
L38730 18290
L38730 18250
L38750 18200
L38770 18180
" />
<path d="M38770 18020
L38750 18000
L38730 17970
L38730 17870
L38750 17830
L38770 17810
L38810 17800
L38850 17800
L38900 17810
L39130 18040
L39130 17800
" />
<path d="M40580 18270
L40580 18230
L40600 18190
L40620 18170
L40660 18150
L40730 18140
L40830 18140
L40910 18150
L40940 18170
L40960 18190
L40980 18230
L40980 18270
L40960 18310
L40940 18330
L40910 18340
L40830 18360
L40730 18360
L40660 18340
L40620 18330
L40600 18310
L40580 18270
" />
<path d="M40940 17960
L40960 17950
L40980 17960
L40960 17980
L40940 17960
L40980 17960
" />
<path d="M40980 17570
L40980 17790
" />
<path d="M40980 17680
L40580 17680
L40640 17720
L40680 17760
L40700 17790
" />
<path d="M40720 17220
L40980 17220
" />
<path d="M40720 17390
L40920 17390
L40960 17380
L40980 17340
L40980 17280
L40960 17240
L40940 17220
" />
<path d="M40720 17090
L40720 16940
" />
<path d="M40980 17030
L40640 17030
L40600 17020
L40580 16980
L40580 16940
" />
</g>
<g style="fill:#009F9F; fill-opacity:0.0; 
stroke:#009F9F; stroke-width:0; stroke-opacity:1; 
stroke-linecap:round; stroke-linejoin:round;">
</g>
<g style="fill:#9F0000; fill-opacity:0.0; 
stroke:#9F0000; stroke-width:200; stroke-opacity:1; 
stroke-linecap:round; stroke-linejoin:round;">
<polyline fill="none;"
points="40300,21300
40300,19700
" /> 
<polyline fill="none;"
points="39700,21300
39700,19700
" /> 
</g>
<g style="fill:#9F0000; fill-opacity:0.0; 
stroke:#9F0000; stroke-width:60; stroke-opacity:1; 
stroke-linecap:round; stroke-linejoin:round;">
<path d="M39700 20500
L38000 20500
" />
</g>
<g style="fill:#009F9F; fill-opacity:0.0; 
stroke:#009F9F; stroke-width:60; stroke-opacity:1; 
stroke-linecap:round; stroke-linejoin:round;">
</g>
<g style="fill:#9F0000; fill-opacity:0.0; 
stroke:#9F0000; stroke-width:60; stroke-opacity:1; 
stroke-linecap:round; stroke-linejoin:round;">
<path d="M40300 20500
L42000 20500
" />
</g>
<g style="fill:#009F9F; fill-opacity:0.0; 
stroke:#009F9F; stroke-width:60; stroke-opacity:1; 
stroke-linecap:round; stroke-linejoin:round;">
<path d="M39090 20180
L39110 20200
L39130 20250
L39130 20290
L39110 20350
L39070 20390
L39040 20400
L38960 20420
L38900 20420
L38830 20400
L38790 20390
L38750 20350
L38730 20290
L38730 20250
L38750 20200
L38770 20180
" />
<path d="M38730 20040
L38730 19800
L38880 19930
L38880 19870
L38900 19830
L38920 19810
L38960 19800
L39060 19800
L39090 19810
L39110 19830
L39130 19870
L39130 19990
L39110 20020
L39090 20040
" />
<path d="M40980 20130
L40980 20350
" />
<path d="M40980 20240
L40580 20240
L40640 20280
L40680 20320
L40700 20350
" />
<path d="M40580 19880
L40580 19840
L40600 19800
L40620 19780
L40660 19760
L40730 19750
L40830 19750
L40910 19760
L40940 19780
L40960 19800
L40980 19840
L40980 19880
L40960 19920
L40940 19940
L40910 19950
L40830 19970
L40730 19970
L40660 19950
L40620 19940
L40600 19920
L40580 19880
" />
<path d="M40720 19400
L40980 19400
" />
<path d="M40720 19570
L40920 19570
L40960 19560
L40980 19520
L40980 19460
L40960 19420
L40940 19400
" />
<path d="M40720 19270
L40720 19120
" />
<path d="M40980 19210
L40640 19210
L40600 19200
L40580 19160
L40580 19120
" />
</g>
<g style="fill:#009F00; fill-opacity:0.0; 
stroke:#009F00; stroke-width:60; stroke-opacity:1; 
stroke-linecap:round; stroke-linejoin:round;">
<path d="M42000 20500
L42000 18500
" />
<path d="M42000 18500
L43000 18500
" />
<path d="M38000 20500
L38000 18500
" />
<path d="M38000 18500
L35000 18500
" />
</g>
<g style="fill:#009F00; fill-opacity:0.0; 
stroke:#009F00; stroke-width:0; stroke-opacity:1; 
stroke-linecap:round; stroke-linejoin:round;">
</g>
<g style="fill:#009F00; fill-opacity:1.0; 
stroke:#009F00; stroke-width:100; stroke-opacity:1; 
stroke-linecap:round; stroke-linejoin:round;">
<circle cx="42000" cy="18500" r="160" /> 
</g>
<g style="fill:#009F00; fill-opacity:1.0; 
stroke:#009F00; stroke-width:0; stroke-opacity:1; 
stroke-linecap:round; stroke-linejoin:round;">
</g>
<g style="fill:#009F00; fill-opacity:1.0; 
stroke:#009F00; stroke-width:100; stroke-opacity:1; 
stroke-linecap:round; stroke-linejoin:round;">
<circle cx="38000" cy="18500" r="160" /> 
</g>
<g style="fill:#009F00; fill-opacity:1.0; 
stroke:#009F00; stroke-width:0; stroke-opacity:1; 
stroke-linecap:round; stroke-linejoin:round;">
</g>
<g style="fill:#9F0000; fill-opacity:0.0; 
stroke:#9F0000; stroke-width:60; stroke-opacity:1; 
stroke-linecap:round; stroke-linejoin:round;">
<circle cx="16100" cy="7000" r="200" /> 
<polyline fill="none;"
points="15500,7000
15900,7000
15900,7000
" /> 
</g>
<g style="fill:#009F9F; fill-opacity:0.0; 
stroke:#009F9F; stroke-width:50; stroke-opacity:1; 
stroke-linecap:round; stroke-linejoin:round;">
<path d="M16630 7600
L16630 7370
" />
<path d="M16740 7480
L16510 7480
" />
<path d="M16440 7260
L16440 7070
L16560 7170
L16560 7130
L16570 7100
L16580 7090
L16610 7070
L16680 7070
L16710 7090
L16730 7100
L16740 7130
L16740 7210
L16730 7240
L16710 7260
" />
<path d="M16710 6940
L16730 6920
L16740 6940
L16730 6950
L16710 6940
L16740 6940
" />
<path d="M16440 6830
L16440 6640
L16560 6740
L16560 6700
L16570 6670
L16580 6660
L16610 6640
L16680 6640
L16710 6660
L16730 6670
L16740 6700
L16740 6780
L16730 6810
L16710 6830
" />
<path d="M16440 6550
L16740 6450
L16440 6350
" />
</g>
<g style="fill:#009F9F; fill-opacity:0.0; 
stroke:#009F9F; stroke-width:0; stroke-opacity:1; 
stroke-linecap:round; stroke-linejoin:round;">
</g>
<g style="fill:#9F0000; fill-opacity:0.0; 
stroke:#9F0000; stroke-width:60; stroke-opacity:1; 
stroke-linecap:round; stroke-linejoin:round;">
<polyline fill="none;"
points="6500,6500
6000,7000
6500,7500
6500,6500
" /> 
</g>
<g style="fill:#9F0000; fill-opacity:0.0; 
stroke:#9F0000; stroke-width:0; stroke-opacity:1; 
stroke-linecap:round; stroke-linejoin:round;">
</g>
<g style="fill:#9F0000; fill-opacity:0.0; 
stroke:#9F0000; stroke-width:120; stroke-opacity:1; 
stroke-linecap:round; stroke-linejoin:round;">
<rect x="11500" y="6600" width="3000" height="800" rx="0" />
</g>
<g style="fill:#9F0000; fill-opacity:0.0; 
stroke:#9F0000; stroke-width:60; stroke-opacity:1; 
stroke-linecap:round; stroke-linejoin:round;">
<path d="M11500 7000
L10500 7000
" />
</g>
<g style="fill:#009F9F; fill-opacity:0.0; 
stroke:#009F9F; stroke-width:60; stroke-opacity:1; 
stroke-linecap:round; stroke-linejoin:round;">
</g>
<g style="fill:#9F0000; fill-opacity:0.0; 
stroke:#9F0000; stroke-width:60; stroke-opacity:1; 
stroke-linecap:round; stroke-linejoin:round;">
<path d="M14500 7000
L15500 7000
" />
</g>
<g style="fill:#009F9F; fill-opacity:0.0; 
stroke:#009F9F; stroke-width:60; stroke-opacity:1; 
stroke-linecap:round; stroke-linejoin:round;">
<path d="M12930 6390
L12800 6200
" />
<path d="M12710 6390
L12710 5990
L12860 5990
L12900 6010
L12910 6030
L12930 6070
L12930 6130
L12910 6160
L12900 6180
L12860 6200
L12710 6200
" />
<path d="M13070 5990
L13310 5990
L13180 6140
L13240 6140
L13280 6160
L13300 6180
L13310 6220
L13310 6320
L13300 6350
L13280 6370
L13240 6390
L13120 6390
L13090 6370
L13070 6350
" />
<path d="M12900 7120
L12680 7120
" />
<path d="M12790 7120
L12790 6720
L12750 6780
L12710 6820
L12680 6840
" />
<path d="M13080 7120
L13080 6720
" />
<path d="M13300 7120
L13130 6890
" />
<path d="M13300 6720
L13080 6950
" />
</g>
<g style="fill:#009F9F; fill-opacity:0.0; 
stroke:#009F9F; stroke-width:0; stroke-opacity:1; 
stroke-linecap:round; stroke-linejoin:round;">
</g>
<g style="fill:#9F0000; fill-opacity:0.0; 
stroke:#9F0000; stroke-width:60; stroke-opacity:1; 
stroke-linecap:round; stroke-linejoin:round;">
<polyline fill="none;"
points="8000,7500
8000,6500
" /> 
</g>
<g style="fill:#9F0000; fill-opacity:1.0; 
stroke:#9F0000; stroke-width:60; stroke-opacity:1; 
stroke-linecap:round; stroke-linejoin:round;">
<polyline style="fill-rule:evenodd;"
points="9000,7500
8000,7000
9000,6500
" /> 
</g>
<g style="fill:#9F0000; fill-opacity:0.0; 
stroke:#9F0000; stroke-width:60; stroke-opacity:1; 
stroke-linecap:round; stroke-linejoin:round;">
<polyline fill="none;"
points="7850,6600
7400,6200
7450,6450
" /> 
<polyline fill="none;"
points="7700,6750
7250,6350
7300,6600
" /> 
<path d="M9000 7000
L10500 7000
" />
<path d="M9860 6860
L9640 6860
" />
<path d="M9750 6860
L9750 6460
L9710 6520
L9670 6560
L9640 6580
" />
<path d="M8000 7000
L6500 7000
" />
<path d="M7140 6500
L7160 6480
L7190 6460
L7290 6460
L7330 6480
L7350 6500
L7360 6540
L7360 6580
L7350 6630
L7120 6860
L7360 6860
" />
</g>
<g style="fill:#009F9F; fill-opacity:0.0; 
stroke:#009F9F; stroke-width:60; stroke-opacity:1; 
stroke-linecap:round; stroke-linejoin:round;">
<path d="M8130 8230
L8130 7730
L8250 7730
L8320 7760
L8370 7800
L8390 7850
L8410 7950
L8410 8020
L8390 8110
L8370 8160
L8320 8210
L8250 8230
L8130 8230
" />
<path d="M8890 8230
L8610 8230
" />
<path d="M8750 8230
L8750 7730
L8700 7800
L8650 7850
L8610 7880
" />
<path d="M6970 6230
L6970 5730
L7160 5730
L7210 5760
L7230 5780
L7250 5830
L7250 5900
L7230 5950
L7210 5970
L7160 5990
L6970 5990
" />
<path d="M7420 5730
L7540 6230
L7640 5880
L7730 6230
L7850 5730
" />
<path d="M8320 6230
L8160 5990
" />
<path d="M8040 6230
L8040 5730
L8230 5730
L8280 5760
L8300 5780
L8320 5830
L8320 5900
L8300 5950
L8280 5970
L8230 5990
L8040 5990
" />
<path d="M8420 6280
L8800 6280
" />
<path d="M9160 6230
L8920 6230
L8920 5730
" />
<path d="M9320 5970
L9490 5970
" />
<path d="M9560 6230
L9320 6230
L9320 5730
L9560 5730
" />
<path d="M9770 6230
L9770 5730
L9890 5730
L9960 5760
L10010 5800
L10030 5850
L10050 5950
L10050 6020
L10030 6110
L10010 6160
L9960 6210
L9890 6230
L9770 6230
" />
</g>
<g style="fill:#009F9F; fill-opacity:0.0; 
stroke:#009F9F; stroke-width:0; stroke-opacity:1; 
stroke-linecap:round; stroke-linejoin:round;">
</g>
<g style="fill:#9F0000; fill-opacity:0.0; 
stroke:#9F0000; stroke-width:60; stroke-opacity:1; 
stroke-linecap:round; stroke-linejoin:round;">
<rect x="19500" y="22500" width="2000" height="3000" rx="0" />
<circle cx="19150" cy="23000" r="350" /> 
<path d="M18800 23000
L17000 23000
" />
<path d="M18430 22840
L18080 22840
" />
<path d="M18260 22840
L18260 22240
L18200 22330
L18140 22390
L18080 22410
" />
<circle cx="19150" cy="25000" r="350" /> 
<path d="M18800 25000
L17000 25000
" />
<path d="M18080 24300
L18110 24270
L18170 24240
L18310 24240
L18370 24270
L18400 24300
L18430 24360
L18430 24410
L18400 24500
L18060 24840
L18430 24840
" />
</g>
<g style="fill:#009F9F; fill-opacity:0.0; 
stroke:#009F9F; stroke-width:60; stroke-opacity:1; 
stroke-linecap:round; stroke-linejoin:round;">
<path d="M20130 24290
L19730 24290
L19730 24140
L19750 24100
L19770 24090
L19810 24070
L19870 24070
L19900 24090
L19920 24100
L19940 24140
L19940 24290
" />
<path d="M19870 23720
L20130 23720
" />
<path d="M19710 23820
L20000 23910
L20000 23670
" />
<path d="M21130 24530
L20730 24530
L20730 24380
L20750 24340
L20770 24330
L20810 24310
L20870 24310
L20900 24330
L20920 24340
L20940 24380
L20940 24530
" />
<path d="M20730 24170
L21130 24080
L20850 24000
L21130 23930
L20730 23830
" />
<path d="M21130 23450
L20940 23580
" />
<path d="M21130 23670
L20730 23670
L20730 23520
L20750 23480
L20770 23470
L20810 23450
L20870 23450
L20900 23470
L20920 23480
L20940 23520
L20940 23670
" />
</g>
<g style="fill:#009F9F; fill-opacity:0.0; 
stroke:#009F9F; stroke-width:0; stroke-opacity:1; 
stroke-linecap:round; stroke-linejoin:round;">
</g>
<g style="fill:#9F0000; fill-opacity:0.0; 
stroke:#9F0000; stroke-width:60; stroke-opacity:1; 
stroke-linecap:round; stroke-linejoin:round;">
<polyline fill="none;"
points="17000,24500
16500,25000
17000,25500
17000,24500
" /> 
</g>
<g style="fill:#9F0000; fill-opacity:0.0; 
stroke:#9F0000; stroke-width:0; stroke-opacity:1; 
stroke-linecap:round; stroke-linejoin:round;">
</g>
<g style="fill:#9F0000; fill-opacity:0.0; 
stroke:#9F0000; stroke-width:60; stroke-opacity:1; 
stroke-linecap:round; stroke-linejoin:round;">
<circle cx="16400" cy="23000" r="200" /> 
<polyline fill="none;"
points="17000,23000
16600,23000
16600,23000
" /> 
</g>
<g style="fill:#009F9F; fill-opacity:0.0; 
stroke:#009F9F; stroke-width:50; stroke-opacity:1; 
stroke-linecap:round; stroke-linejoin:round;">
<path d="M15890 23590
L15890 23360
" />
<path d="M16000 23470
L15770 23470
" />
<path d="M15700 23250
L15700 23060
L15820 23160
L15820 23120
L15830 23090
L15840 23080
L15870 23060
L15940 23060
L15970 23080
L15990 23090
L16000 23120
L16000 23200
L15990 23230
L15970 23250
" />
<path d="M15970 22930
L15990 22910
L16000 22930
L15990 22940
L15970 22930
L16000 22930
" />
<path d="M15700 22820
L15700 22630
L15820 22730
L15820 22690
L15830 22660
L15840 22650
L15870 22630
L15940 22630
L15970 22650
L15990 22660
L16000 22690
L16000 22770
L15990 22800
L15970 22820
" />
<path d="M15700 22540
L16000 22440
L15700 22340
" />
</g>
<g style="fill:#009F9F; fill-opacity:0.0; 
stroke:#009F9F; stroke-width:0; stroke-opacity:1; 
stroke-linecap:round; stroke-linejoin:round;">
</g>
<g style="fill:#9F0000; fill-opacity:0.0; 
stroke:#9F0000; stroke-width:60; stroke-opacity:1; 
stroke-linecap:round; stroke-linejoin:round;">
<rect x="18000" y="10000" width="2000" height="4000" rx="0" />
<circle cx="17650" cy="10500" r="350" /> 
<path d="M17300 10500
L15000 10500
" />
</g>
<g style="fill:#009F9F; fill-opacity:0.0; 
stroke:#009F9F; stroke-width:60; stroke-opacity:1; 
stroke-linecap:round; stroke-linejoin:round;">
</g>
<g style="fill:#009F9F; fill-opacity:0.0; 
stroke:#009F9F; stroke-width:40; stroke-opacity:1; 
stroke-linecap:round; stroke-linejoin:round;">
<path d="M16480 10380
L16400 10260
" />
<path d="M16350 10380
L16350 10140
L16440 10140
L16460 10150
L16470 10160
L16480 10180
L16480 10220
L16470 10240
L16460 10250
L16440 10260
L16350 10260
" />
<path d="M16560 10380
L16690 10220
" />
<path d="M16560 10220
L16690 10380
" />
</g>
<g style="fill:#009F9F; fill-opacity:0.0; 
stroke:#009F9F; stroke-width:60; stroke-opacity:1; 
stroke-linecap:round; stroke-linejoin:round;">
</g>
<g style="fill:#9F0000; fill-opacity:0.0; 
stroke:#9F0000; stroke-width:60; stroke-opacity:1; 
stroke-linecap:round; stroke-linejoin:round;">
</g>
<g style="fill:#9F0000; fill-opacity:0.0; 
stroke:#9F0000; stroke-width:40; stroke-opacity:1; 
stroke-linecap:round; stroke-linejoin:round;">
<path d="M16570 10820
L16440 10820
" />
<path d="M16500 10820
L16500 10580
L16480 10610
L16460 10630
L16440 10650
" />
</g>
<g style="fill:#9F0000; fill-opacity:0.0; 
stroke:#9F0000; stroke-width:60; stroke-opacity:1; 
stroke-linecap:round; stroke-linejoin:round;">
<circle cx="20350" cy="10500" r="350" /> 
<path d="M20700 10500
L23000 10500
" />
</g>
<g style="fill:#009F9F; fill-opacity:0.0; 
stroke:#009F9F; stroke-width:60; stroke-opacity:1; 
stroke-linecap:round; stroke-linejoin:round;">
</g>
<g style="fill:#009F9F; fill-opacity:0.0; 
stroke:#009F9F; stroke-width:40; stroke-opacity:1; 
stroke-linecap:round; stroke-linejoin:round;">
<path d="M21130 10290
L21310 10290
" />
<path d="M21220 10380
L21220 10190
" />
<path d="M21400 10140
L21550 10140
L21470 10230
L21510 10230
L21530 10240
L21540 10250
L21550 10270
L21550 10330
L21540 10350
L21530 10370
L21510 10380
L21440 10380
L21420 10370
L21400 10350
" />
<path d="M21660 10350
L21670 10370
L21660 10380
L21650 10370
L21660 10350
L21660 10380
" />
<path d="M21740 10140
L21890 10140
L21810 10230
L21850 10230
L21870 10240
L21880 10250
L21890 10270
L21890 10330
L21880 10350
L21870 10370
L21850 10380
L21780 10380
L21760 10370
L21740 10350
" />
</g>
<g style="fill:#009F9F; fill-opacity:0.0; 
stroke:#009F9F; stroke-width:60; stroke-opacity:1; 
stroke-linecap:round; stroke-linejoin:round;">
</g>
<g style="fill:#9F0000; fill-opacity:0.0; 
stroke:#9F0000; stroke-width:60; stroke-opacity:1; 
stroke-linecap:round; stroke-linejoin:round;">
</g>
<g style="fill:#9F0000; fill-opacity:0.0; 
stroke:#9F0000; stroke-width:40; stroke-opacity:1; 
stroke-linecap:round; stroke-linejoin:round;">
<path d="M21440 10600
L21450 10590
L21470 10580
L21530 10580
L21550 10590
L21560 10600
L21570 10620
L21570 10650
L21560 10680
L21420 10820
L21570 10820
" />
</g>
<g style="fill:#9F0000; fill-opacity:0.0; 
stroke:#9F0000; stroke-width:60; stroke-opacity:1; 
stroke-linecap:round; stroke-linejoin:round;">
<circle cx="17650" cy="11500" r="350" /> 
<path d="M17300 11500
L15000 11500
" />
</g>
<g style="fill:#009F9F; fill-opacity:0.0; 
stroke:#009F9F; stroke-width:60; stroke-opacity:1; 
stroke-linecap:round; stroke-linejoin:round;">
</g>
<g style="fill:#009F9F; fill-opacity:0.0; 
stroke:#009F9F; stroke-width:40; stroke-opacity:1; 
stroke-linecap:round; stroke-linejoin:round;">
<path d="M16150 11150
L16130 11140
L16100 11140
L16060 11150
L16040 11170
L16030 11190
L16020 11240
L16020 11270
L16030 11320
L16040 11340
L16060 11370
L16100 11380
L16120 11380
L16150 11370
L16160 11350
L16160 11270
L16120 11270
" />
<path d="M16270 11380
L16270 11140
L16360 11140
L16380 11150
L16390 11160
L16400 11180
L16400 11220
L16390 11240
L16380 11250
L16360 11260
L16270 11260
" />
<path d="M16510 11380
L16510 11140
" />
<path d="M16660 11140
L16710 11140
L16730 11150
L16750 11170
L16770 11220
L16770 11300
L16750 11340
L16730 11370
L16710 11380
L16660 11380
L16640 11370
L16620 11340
L16610 11300
L16610 11220
L16620 11170
L16640 11150
L16660 11140
" />
<path d="M16910 11140
L16940 11140
L16960 11150
L16970 11160
L16980 11180
L16990 11230
L16990 11290
L16980 11330
L16970 11350
L16960 11370
L16940 11380
L16910 11380
L16890 11370
L16880 11350
L16870 11330
L16860 11290
L16860 11230
L16870 11180
L16880 11160
L16890 11150
L16910 11140
" />
</g>
<g style="fill:#009F9F; fill-opacity:0.0; 
stroke:#009F9F; stroke-width:60; stroke-opacity:1; 
stroke-linecap:round; stroke-linejoin:round;">
</g>
<g style="fill:#9F0000; fill-opacity:0.0; 
stroke:#9F0000; stroke-width:60; stroke-opacity:1; 
stroke-linecap:round; stroke-linejoin:round;">
</g>
<g style="fill:#9F0000; fill-opacity:0.0; 
stroke:#9F0000; stroke-width:40; stroke-opacity:1; 
stroke-linecap:round; stroke-linejoin:round;">
<path d="M16420 11580
L16570 11580
L16490 11670
L16530 11670
L16550 11680
L16560 11690
L16570 11710
L16570 11770
L16560 11790
L16550 11810
L16530 11820
L16460 11820
L16440 11810
L16420 11790
" />
</g>
<g style="fill:#9F0000; fill-opacity:0.0; 
stroke:#9F0000; stroke-width:60; stroke-opacity:1; 
stroke-linecap:round; stroke-linejoin:round;">
<circle cx="20350" cy="11500" r="350" /> 
<path d="M20700 11500
L23000 11500
" />
</g>
<g style="fill:#009F9F; fill-opacity:0.0; 
stroke:#009F9F; stroke-width:60; stroke-opacity:1; 
stroke-linecap:round; stroke-linejoin:round;">
</g>
<g style="fill:#009F9F; fill-opacity:0.0; 
stroke:#009F9F; stroke-width:40; stroke-opacity:1; 
stroke-linecap:round; stroke-linejoin:round;">
<path d="M21370 11380
L21290 11260
" />
<path d="M21240 11380
L21240 11140
L21330 11140
L21350 11150
L21360 11160
L21370 11180
L21370 11220
L21360 11240
L21350 11250
L21330 11260
L21240 11260
" />
<path d="M21470 11370
L21500 11380
L21560 11380
L21580 11370
L21590 11350
L21600 11330
L21600 11310
L21590 11290
L21580 11270
L21560 11260
L21510 11250
L21490 11240
L21480 11230
L21470 11210
L21470 11180
L21480 11160
L21490 11150
L21510 11140
L21570 11140
L21600 11150
" />
<path d="M21670 11140
L21810 11140
" />
<path d="M21740 11380
L21740 11140
" />
</g>
<g style="fill:#009F9F; fill-opacity:0.0; 
stroke:#009F9F; stroke-width:60; stroke-opacity:1; 
stroke-linecap:round; stroke-linejoin:round;">
</g>
<g style="fill:#9F0000; fill-opacity:0.0; 
stroke:#9F0000; stroke-width:60; stroke-opacity:1; 
stroke-linecap:round; stroke-linejoin:round;">
</g>
<g style="fill:#9F0000; fill-opacity:0.0; 
stroke:#9F0000; stroke-width:40; stroke-opacity:1; 
stroke-linecap:round; stroke-linejoin:round;">
<path d="M21550 11660
L21550 11820
" />
<path d="M21490 11570
L21440 11740
L21580 11740
" />
</g>
<g style="fill:#9F0000; fill-opacity:0.0; 
stroke:#9F0000; stroke-width:60; stroke-opacity:1; 
stroke-linecap:round; stroke-linejoin:round;">
<circle cx="17650" cy="12500" r="350" /> 
<path d="M17300 12500
L15000 12500
" />
</g>
<g style="fill:#009F9F; fill-opacity:0.0; 
stroke:#009F9F; stroke-width:60; stroke-opacity:1; 
stroke-linecap:round; stroke-linejoin:round;">
</g>
<g style="fill:#009F9F; fill-opacity:0.0; 
stroke:#009F9F; stroke-width:40; stroke-opacity:1; 
stroke-linecap:round; stroke-linejoin:round;">
<path d="M16150 12150
L16130 12140
L16100 12140
L16060 12150
L16040 12170
L16030 12190
L16020 12240
L16020 12270
L16030 12320
L16040 12340
L16060 12370
L16100 12380
L16120 12380
L16150 12370
L16160 12350
L16160 12270
L16120 12270
" />
<path d="M16270 12380
L16270 12140
L16360 12140
L16380 12150
L16390 12160
L16400 12180
L16400 12220
L16390 12240
L16380 12250
L16360 12260
L16270 12260
" />
<path d="M16510 12380
L16510 12140
" />
<path d="M16660 12140
L16710 12140
L16730 12150
L16750 12170
L16770 12220
L16770 12300
L16750 12340
L16730 12370
L16710 12380
L16660 12380
L16640 12370
L16620 12340
L16610 12300
L16610 12220
L16620 12170
L16640 12150
L16660 12140
" />
<path d="M16910 12140
L16940 12140
L16960 12150
L16970 12160
L16980 12180
L16990 12230
L16990 12290
L16980 12330
L16970 12350
L16960 12370
L16940 12380
L16910 12380
L16890 12370
L16880 12350
L16870 12330
L16860 12290
L16860 12230
L16870 12180
L16880 12160
L16890 12150
L16910 12140
" />
</g>
<g style="fill:#009F9F; fill-opacity:0.0; 
stroke:#009F9F; stroke-width:60; stroke-opacity:1; 
stroke-linecap:round; stroke-linejoin:round;">
</g>
<g style="fill:#9F0000; fill-opacity:0.0; 
stroke:#9F0000; stroke-width:60; stroke-opacity:1; 
stroke-linecap:round; stroke-linejoin:round;">
</g>
<g style="fill:#9F0000; fill-opacity:0.0; 
stroke:#9F0000; stroke-width:40; stroke-opacity:1; 
stroke-linecap:round; stroke-linejoin:round;">
<path d="M16560 12580
L16450 12580
L16440 12690
L16450 12680
L16470 12670
L16530 12670
L16550 12680
L16560 12690
L16570 12710
L16570 12770
L16560 12790
L16550 12810
L16530 12820
L16470 12820
L16450 12810
L16440 12790
" />
</g>
<g style="fill:#9F0000; fill-opacity:0.0; 
stroke:#9F0000; stroke-width:60; stroke-opacity:1; 
stroke-linecap:round; stroke-linejoin:round;">
<circle cx="20350" cy="12500" r="350" /> 
<path d="M20700 12500
L23000 12500
" />
</g>
<g style="fill:#009F9F; fill-opacity:0.0; 
stroke:#009F9F; stroke-width:60; stroke-opacity:1; 
stroke-linecap:round; stroke-linejoin:round;">
</g>
<g style="fill:#009F9F; fill-opacity:0.0; 
stroke:#009F9F; stroke-width:40; stroke-opacity:1; 
stroke-linecap:round; stroke-linejoin:round;">
<path d="M21120 12350
L21110 12370
L21080 12380
L21060 12380
L21020 12370
L21000 12340
L20990 12320
L20980 12270
L20980 12240
L20990 12190
L21000 12170
L21020 12150
L21060 12140
L21080 12140
L21110 12150
L21120 12160
" />
<path d="M21230 12380
L21230 12140
" />
<path d="M21230 12250
L21360 12250
" />
<path d="M21360 12380
L21360 12140
" />
<path d="M21420 12400
L21600 12400
" />
<path d="M21660 12380
L21660 12140
L21750 12140
L21770 12150
L21780 12160
L21790 12180
L21790 12220
L21780 12240
L21770 12250
L21750 12260
L21660 12260
" />
<path d="M21900 12380
L21900 12140
L21950 12140
L21990 12150
L22010 12170
L22020 12190
L22030 12240
L22030 12270
L22020 12320
L22010 12340
L21990 12370
L21950 12380
L21900 12380
" />
</g>
<g style="fill:#009F9F; fill-opacity:0.0; 
stroke:#009F9F; stroke-width:60; stroke-opacity:1; 
stroke-linecap:round; stroke-linejoin:round;">
</g>
<g style="fill:#9F0000; fill-opacity:0.0; 
stroke:#9F0000; stroke-width:60; stroke-opacity:1; 
stroke-linecap:round; stroke-linejoin:round;">
</g>
<g style="fill:#9F0000; fill-opacity:0.0; 
stroke:#9F0000; stroke-width:40; stroke-opacity:1; 
stroke-linecap:round; stroke-linejoin:round;">
<path d="M21550 12580
L21500 12580
L21480 12590
L21470 12600
L21450 12630
L21440 12680
L21440 12770
L21450 12790
L21460 12810
L21480 12820
L21530 12820
L21550 12810
L21560 12790
L21570 12770
L21570 12710
L21560 12690
L21550 12680
L21530 12670
L21480 12670
L21460 12680
L21450 12690
L21440 12710
" />
</g>
<g style="fill:#9F0000; fill-opacity:0.0; 
stroke:#9F0000; stroke-width:60; stroke-opacity:1; 
stroke-linecap:round; stroke-linejoin:round;">
<circle cx="17650" cy="13500" r="350" /> 
<path d="M17300 13500
L15000 13500
" />
</g>
<g style="fill:#009F9F; fill-opacity:0.0; 
stroke:#009F9F; stroke-width:60; stroke-opacity:1; 
stroke-linecap:round; stroke-linejoin:round;">
</g>
<g style="fill:#009F9F; fill-opacity:0.0; 
stroke:#009F9F; stroke-width:40; stroke-opacity:1; 
stroke-linecap:round; stroke-linejoin:round;">
<path d="M16320 13150
L16300 13140
L16270 13140
L16230 13150
L16210 13170
L16200 13190
L16190 13240
L16190 13270
L16200 13320
L16210 13340
L16230 13370
L16270 13380
L16290 13380
L16320 13370
L16330 13350
L16330 13270
L16290 13270
" />
<path d="M16440 13380
L16440 13140
L16570 13380
L16570 13140
" />
<path d="M16690 13380
L16690 13140
L16740 13140
L16780 13150
L16800 13170
L16810 13190
L16820 13240
L16820 13270
L16810 13320
L16800 13340
L16780 13370
L16740 13380
L16690 13380
" />
</g>
<g style="fill:#009F9F; fill-opacity:0.0; 
stroke:#009F9F; stroke-width:60; stroke-opacity:1; 
stroke-linecap:round; stroke-linejoin:round;">
</g>
<g style="fill:#9F0000; fill-opacity:0.0; 
stroke:#9F0000; stroke-width:60; stroke-opacity:1; 
stroke-linecap:round; stroke-linejoin:round;">
</g>
<g style="fill:#9F0000; fill-opacity:0.0; 
stroke:#9F0000; stroke-width:40; stroke-opacity:1; 
stroke-linecap:round; stroke-linejoin:round;">
<path d="M16420 13580
L16580 13580
L16480 13820
" />
</g>
<g style="fill:#9F0000; fill-opacity:0.0; 
stroke:#9F0000; stroke-width:60; stroke-opacity:1; 
stroke-linecap:round; stroke-linejoin:round;">
<circle cx="20350" cy="13500" r="350" /> 
<path d="M20700 13500
L23000 13500
" />
</g>
<g style="fill:#009F9F; fill-opacity:0.0; 
stroke:#009F9F; stroke-width:60; stroke-opacity:1; 
stroke-linecap:round; stroke-linejoin:round;">
</g>
<g style="fill:#009F9F; fill-opacity:0.0; 
stroke:#009F9F; stroke-width:40; stroke-opacity:1; 
stroke-linecap:round; stroke-linejoin:round;">
<path d="M21340 13140
L21480 13140
" />
<path d="M21410 13380
L21410 13140
" />
<path d="M21530 13380
L21660 13220
" />
<path d="M21530 13220
L21660 13380
" />
</g>
<g style="fill:#009F9F; fill-opacity:0.0; 
stroke:#009F9F; stroke-width:60; stroke-opacity:1; 
stroke-linecap:round; stroke-linejoin:round;">
</g>
<g style="fill:#9F0000; fill-opacity:0.0; 
stroke:#9F0000; stroke-width:60; stroke-opacity:1; 
stroke-linecap:round; stroke-linejoin:round;">
</g>
<g style="fill:#9F0000; fill-opacity:0.0; 
stroke:#9F0000; stroke-width:40; stroke-opacity:1; 
stroke-linecap:round; stroke-linejoin:round;">
<path d="M21480 13680
L21460 13670
L21450 13660
L21440 13630
L21440 13620
L21450 13600
L21460 13590
L21480 13580
L21530 13580
L21550 13590
L21560 13600
L21570 13620
L21570 13630
L21560 13660
L21550 13670
L21530 13680
L21480 13680
L21460 13690
L21450 13700
L21440 13730
L21440 13770
L21450 13790
L21460 13810
L21480 13820
L21530 13820
L21550 13810
L21560 13790
L21570 13770
L21570 13730
L21560 13700
L21550 13690
L21530 13680
" />
</g>
<g style="fill:#9F0000; fill-opacity:0.0; 
stroke:#9F0000; stroke-width:60; stroke-opacity:1; 
stroke-linecap:round; stroke-linejoin:round;">
</g>
<g style="fill:#009F9F; fill-opacity:0.0; 
stroke:#009F9F; stroke-width:60; stroke-opacity:1; 
stroke-linecap:round; stroke-linejoin:round;">
<path d="M18630 9670
L18630 9170
L18820 9170
L18870 9200
L18890 9220
L18910 9270
L18910 9340
L18890 9390
L18870 9410
L18820 9430
L18630 9430
" />
<path d="M19390 9670
L19110 9670
" />
<path d="M19250 9670
L19250 9170
L19200 9240
L19150 9290
L19110 9320
" />
<path d="M18920 13100
L18920 12970
" />
<path d="M19130 12910
L19130 13100
L18730 13100
L18730 12910
" />
<path d="M19110 12760
L19130 12710
L19130 12610
L19110 12570
L19090 12550
L19060 12540
L19020 12540
L18980 12550
L18960 12570
L18940 12610
L18920 12690
L18900 12730
L18880 12740
L18850 12760
L18810 12760
L18770 12740
L18750 12730
L18730 12690
L18730 12590
L18750 12540
" />
<path d="M19130 12360
L18730 12360
L18730 12210
L18750 12170
L18770 12160
L18810 12140
L18870 12140
L18900 12160
L18920 12170
L18940 12210
L18940 12360
" />
<path d="M18980 11960
L18980 11660
" />
<path d="M18730 11390
L18730 11350
L18750 11310
L18770 11290
L18810 11270
L18880 11260
L18980 11260
L19060 11270
L19090 11290
L19110 11310
L19130 11350
L19130 11390
L19110 11430
L19090 11450
L19060 11460
L18980 11480
L18880 11480
L18810 11460
L18770 11450
L18750 11430
L18730 11390
" />
<path d="M19130 10880
L19130 11100
" />
<path d="M19130 10990
L18730 10990
L18790 11030
L18830 11070
L18850 11100
" />
</g>
<g style="fill:#009F9F; fill-opacity:0.0; 
stroke:#009F9F; stroke-width:0; stroke-opacity:1; 
stroke-linecap:round; stroke-linejoin:round;">
</g>
<g style="fill:#9F0000; fill-opacity:0.0; 
stroke:#9F0000; stroke-width:60; stroke-opacity:1; 
stroke-linecap:round; stroke-linejoin:round;">
<rect x="14500" y="15000" width="3000" height="2000" rx="0" />
<circle cx="15000" cy="17350" r="350" /> 
<path d="M15000 17700
L15000 19500
" />
<path d="M14840 18070
L14840 18420
" />
<path d="M14840 18240
L14240 18240
L14330 18300
L14390 18360
L14410 18420
" />
<circle cx="17000" cy="17350" r="350" /> 
<path d="M17000 17700
L17000 19500
" />
<path d="M16300 18420
L16270 18390
L16240 18330
L16240 18190
L16270 18130
L16300 18100
L16360 18070
L16410 18070
L16500 18100
L16840 18440
L16840 18070
" />
</g>
<g style="fill:#009F9F; fill-opacity:0.0; 
stroke:#009F9F; stroke-width:60; stroke-opacity:1; 
stroke-linecap:round; stroke-linejoin:round;">
<path d="M15710 16690
L15710 16290
L15860 16290
L15900 16310
L15910 16330
L15930 16370
L15930 16430
L15910 16460
L15900 16480
L15860 16500
L15710 16500
" />
<path d="M16280 16290
L16200 16290
L16160 16310
L16140 16330
L16110 16390
L16090 16460
L16090 16620
L16110 16650
L16120 16670
L16160 16690
L16240 16690
L16280 16670
L16300 16650
L16310 16620
L16310 16520
L16300 16480
L16280 16460
L16240 16440
L16160 16440
L16120 16460
L16110 16480
L16090 16520
" />
<path d="M15150 15480
L15210 15500
L15220 15520
L15240 15560
L15240 15620
L15220 15650
L15210 15670
L15170 15690
L15020 15690
L15020 15290
L15150 15290
L15190 15310
L15210 15330
L15220 15370
L15220 15410
L15210 15440
L15190 15460
L15150 15480
L15020 15480
" />
<path d="M15640 15690
L15510 15500
" />
<path d="M15420 15690
L15420 15290
L15570 15290
L15610 15310
L15620 15330
L15640 15370
L15640 15430
L15620 15460
L15610 15480
L15570 15500
L15420 15500
" />
<path d="M15820 15690
L15820 15290
" />
<path d="M16010 15690
L16010 15290
L16100 15290
L16160 15310
L16200 15350
L16210 15390
L16230 15460
L16230 15520
L16210 15600
L16200 15630
L16160 15670
L16100 15690
L16010 15690
" />
<path d="M16610 15310
L16580 15290
L16520 15290
L16460 15310
L16420 15350
L16410 15390
L16390 15460
L16390 15520
L16410 15600
L16420 15630
L16460 15670
L16520 15690
L16560 15690
L16610 15670
L16630 15650
L16630 15520
L16560 15520
" />
<path d="M16810 15480
L16940 15480
" />
<path d="M17000 15690
L16810 15690
L16810 15290
L17000 15290
" />
</g>
<g style="fill:#009F00; fill-opacity:0.0; 
stroke:#009F00; stroke-width:60; stroke-opacity:1; 
stroke-linecap:round; stroke-linejoin:round;">
<path d="M15000 19500
L17000 19500
" />
</g>
<g style="fill:#009F00; fill-opacity:0.0; 
stroke:#009F00; stroke-width:0; stroke-opacity:1; 
stroke-linecap:round; stroke-linejoin:round;">
</g>
<g style="fill:#009F00; fill-opacity:1.0; 
stroke:#009F00; stroke-width:100; stroke-opacity:1; 
stroke-linecap:round; stroke-linejoin:round;">
<circle cx="17000" cy="19500" r="160" /> 
</g>
<g style="fill:#009F00; fill-opacity:1.0; 
stroke:#009F00; stroke-width:0; stroke-opacity:1; 
stroke-linecap:round; stroke-linejoin:round;">
</g>
<g style="fill:#009F00; fill-opacity:1.0; 
stroke:#009F00; stroke-width:100; stroke-opacity:1; 
stroke-linecap:round; stroke-linejoin:round;">
<circle cx="15000" cy="19500" r="160" /> 
</g> 
</svg>
