<?xml version="1.0" standalone="no"?>
 <!DOCTYPE svg PUBLIC "-//W3C//DTD SVG 1.1//EN" 
 "http://www.w3.org/Graphics/SVG/1.1/DTD/svg11.dtd"> 
<svg xmlns="http://www.w3.org/2000/svg" version="1.1" 
    width="2.1209cm" height="2.56794cm" viewBox="0 0 8350 10110 ">
<title>SVG Picture created as espkit-01--brd.svg date 2015/03/14 02:31:44 </title>
  <desc>Picture generated by PCBNEW </desc>
<g style="fill:#000000; fill-opacity:1;stroke:#000000; stroke-opacity:1;
stroke-linecap:round; stroke-linejoin:round; "
 transform="translate(0 0) scale(1 1)">
</g>
<g style="fill:#009F9F; fill-opacity:0.0; 
stroke:#009F9F; stroke-width:39.3701; stroke-opacity:1; 
stroke-linecap:round; stroke-linejoin:round;">
<path d="M5471 4101
L5628 4101
L5628 4161
L5621 4176
L5613 4183
L5598 4191
L5576 4191
L5561 4183
L5553 4176
L5546 4161
L5546 4101
" />
<path d="M5471 4258
L5628 4258
" />
<path d="M5628 4318
L5471 4423
" />
<path d="M5628 4423
L5471 4318
" />
<path d="M5553 4483
L5553 4536
" />
<path d="M5471 4558
L5471 4483
L5628 4483
L5628 4558
" />
<path d="M5471 4701
L5471 4626
L5628 4626
" />
<path d="M4684 4292
L4684 4322
L4676 4337
L4661 4352
L4631 4360
L4579 4360
L4549 4352
L4534 4337
L4526 4322
L4526 4292
L4534 4277
L4549 4262
L4579 4255
L4631 4255
L4661 4262
L4676 4277
L4684 4292
" />
<path d="M4526 4427
L4684 4427
L4526 4517
L4684 4517
" />
</g>
<g style="fill:#FFFF00; fill-opacity:0.0; 
stroke:#FFFF00; stroke-width:39.3701; stroke-opacity:1; 
stroke-linecap:round; stroke-linejoin:round;">
<path d="M8094.3 9980.61 A118.11 118.11 0.0 0 0 8212.41 9862.5 " />
<path d="M8212.41 256.204 A118.11 118.11 0.0 0 0 8094.3 138.093 " />
<path d="M456.505 138.093 A118.11 118.11 0.0 0 0 338.395 256.204 " />
<path d="M338.395 9862.5 A118.11 118.11 0.0 0 0 456.505 9980.61 " />
</g>
<g style="fill:#009F9F; fill-opacity:0.0; 
stroke:#009F9F; stroke-width:39.3701; stroke-opacity:1; 
stroke-linecap:round; stroke-linejoin:round;">
<path d="M643 7016
L652 6997
L652 6969
L643 6941
L624 6922
L605 6913
L568 6904
L539 6904
L502 6913
L483 6922
L464 6941
L455 6969
L455 6988
L464 7016
L474 7025
L539 7025
L539 6988
" />
<path d="M455 7110
L652 7110
L652 7185
L643 7204
L633 7213
L614 7222
L586 7222
L568 7213
L558 7204
L549 7185
L549 7110
" />
<path d="M455 7307
L652 7307
" />
<path d="M652 7438
L652 7475
L643 7494
L624 7513
L586 7522
L521 7522
L483 7513
L464 7494
L455 7475
L455 7438
L464 7419
L483 7400
L521 7391
L586 7391
L624 7400
L643 7419
L652 7438
" />
<path d="M436 7560
L436 7710
" />
<path d="M652 7794
L652 7813
L643 7832
L633 7841
L614 7850
L577 7860
L530 7860
L493 7850
L474 7841
L464 7832
L455 7813
L455 7794
L464 7775
L474 7766
L493 7757
L530 7747
L577 7747
L614 7757
L633 7766
L643 7775
L652 7794
" />
<path d="M643 5874
L652 5856
L652 5828
L643 5799
L624 5781
L605 5771
L568 5762
L539 5762
L502 5771
L483 5781
L464 5799
L455 5828
L455 5846
L464 5874
L474 5884
L539 5884
L539 5846
" />
<path d="M455 5968
L652 5968
L652 6043
L643 6062
L633 6071
L614 6081
L586 6081
L568 6071
L558 6062
L549 6043
L549 5968
" />
<path d="M455 6165
L652 6165
" />
<path d="M652 6296
L652 6334
L643 6352
L624 6371
L586 6381
L521 6381
L483 6371
L464 6352
L455 6334
L455 6296
L464 6277
L483 6259
L521 6249
L586 6249
L624 6259
L643 6277
L652 6296
" />
<path d="M436 6418
L436 6568
" />
<path d="M633 6606
L643 6615
L652 6634
L652 6681
L643 6699
L633 6709
L614 6718
L596 6718
L568 6709
L455 6596
L455 6718
" />
<path d="M530 9001
L530 9151
" />
<path d="M455 9076
L605 9076
" />
<path d="M652 9226
L652 9348
L577 9283
L577 9311
L568 9330
L558 9339
L539 9348
L493 9348
L474 9339
L464 9330
L455 9311
L455 9255
L464 9236
L474 9226
" />
<path d="M474 9433
L464 9442
L455 9433
L464 9423
L474 9433
L455 9433
" />
<path d="M652 9508
L652 9630
L577 9564
L577 9592
L568 9611
L558 9620
L539 9630
L493 9630
L474 9620
L464 9611
L455 9592
L455 9536
L464 9517
L474 9508
" />
<path d="M643 8177
L652 8158
L652 8130
L643 8102
L624 8083
L605 8073
L568 8064
L539 8064
L502 8073
L483 8083
L464 8102
L455 8130
L455 8148
L464 8177
L474 8186
L539 8186
L539 8148
" />
<path d="M455 8270
L652 8270
L455 8383
L652 8383
" />
<path d="M455 8477
L652 8477
L652 8523
L643 8552
L624 8570
L605 8580
L568 8589
L539 8589
L502 8580
L483 8570
L464 8552
L455 8523
L455 8477
" />
<path d="M7991 8205
L8148 8205
L8148 8242
L8141 8265
L8126 8280
L8111 8287
L8081 8295
L8058 8295
L8028 8287
L8013 8280
L7998 8265
L7991 8242
L7991 8205
" />
<path d="M7991 8362
L8148 8362
" />
<path d="M7991 8437
L8148 8437
L7991 8527
L8148 8527
" />
<path d="M8141 9270
L8148 9255
L8148 9232
L8141 9210
L8126 9195
L8111 9187
L8081 9180
L8058 9180
L8028 9187
L8013 9195
L7998 9210
L7991 9232
L7991 9247
L7998 9270
L8006 9277
L8058 9277
L8058 9247
" />
<path d="M7991 9345
L8148 9345
L7991 9435
L8148 9435
" />
<path d="M7991 9510
L8148 9510
L8148 9547
L8141 9570
L8126 9585
L8111 9592
L8081 9600
L8058 9600
L8028 9592
L8013 9585
L7998 9570
L7991 9547
L7991 9510
" />
<path d="M8141 6277
L8148 6262
L8148 6240
L8141 6217
L8126 6202
L8111 6195
L8081 6187
L8058 6187
L8028 6195
L8013 6202
L7998 6217
L7991 6240
L7991 6255
L7998 6277
L8006 6285
L8058 6285
L8058 6255
" />
<path d="M7991 6352
L8148 6352
L7991 6442
L8148 6442
" />
<path d="M7991 6517
L8148 6517
L8148 6555
L8141 6577
L8126 6592
L8111 6600
L8081 6607
L8058 6607
L8028 6600
L8013 6592
L7998 6577
L7991 6555
L7991 6517
" />
<path d="M8051 7095
L8051 7215
" />
<path d="M7991 7155
L8111 7155
" />
<path d="M8148 7275
L8148 7372
L8088 7320
L8088 7342
L8081 7357
L8073 7365
L8058 7372
L8021 7372
L8006 7365
L7998 7357
L7991 7342
L7991 7297
L7998 7282
L8006 7275
" />
<path d="M8006 7440
L7998 7447
L7991 7440
L7998 7432
L8006 7440
L7991 7440
" />
<path d="M8148 7500
L8148 7597
L8088 7545
L8088 7567
L8081 7582
L8073 7590
L8058 7597
L8021 7597
L8006 7590
L7998 7582
L7991 7567
L7991 7522
L7998 7507
L8006 7500
" />
</g>
<g style="fill:#FFFF00; fill-opacity:0.0; 
stroke:#FFFF00; stroke-width:39.3701; stroke-opacity:1; 
stroke-linecap:round; stroke-linejoin:round;">
<path d="M8094 9980
L456 9980
" />
<path d="M8212 256
L8212 9862
" />
<path d="M338 256
L338 9862
" />
<path d="M8094 138
L456 138
" />
</g>
<g style="fill:#009F9F; fill-opacity:0.0; 
stroke:#009F9F; stroke-width:39.3701; stroke-opacity:1; 
stroke-linecap:round; stroke-linejoin:round;">
<path d="M5732 430
L5653 318
" />
<path d="M5597 430
L5597 194
L5687 194
L5709 205
L5720 216
L5732 239
L5732 273
L5720 295
L5709 306
L5687 318
L5597 318
" />
<path d="M5810 194
L5968 430
" />
<path d="M5968 194
L5810 430
" />
<path d="M4607 194
L4742 194
" />
<path d="M4674 430
L4674 194
" />
<path d="M4798 194
L4955 430
" />
<path d="M4955 194
L4798 430
" />
<path d="M3431 340
L3611 340
" />
<path d="M3521 430
L3521 250
" />
<path d="M3701 194
L3847 194
L3769 284
L3802 284
L3825 295
L3836 306
L3847 329
L3847 385
L3836 408
L3825 419
L3802 430
L3735 430
L3712 419
L3701 408
" />
<path d="M3949 408
L3960 419
L3949 430
L3937 419
L3949 408
L3949 430
" />
<path d="M4039 194
L4185 194
L4106 284
L4140 284
L4162 295
L4174 306
L4185 329
L4185 385
L4174 408
L4162 419
L4140 430
L4072 430
L4050 419
L4039 408
" />
<path d="M1654 205
L1631 194
L1598 194
L1564 205
L1541 228
L1530 250
L1519 295
L1519 329
L1530 374
L1541 396
L1564 419
L1598 430
L1620 430
L1654 419
L1665 408
L1665 329
L1620 329
" />
<path d="M1766 430
L1766 194
L1901 430
L1901 194
" />
<path d="M2014 430
L2014 194
L2070 194
L2104 205
L2126 228
L2138 250
L2149 295
L2149 329
L2138 374
L2126 396
L2104 419
L2070 430
L2014 430
" />
</g>
<g style="fill:#009F9F; fill-opacity:0.0; 
stroke:#009F9F; stroke-width:59.0551; stroke-opacity:1; 
stroke-linecap:round; stroke-linejoin:round;">
<path d="M4359 2910
L4416 3147
L4461 2978
L4505 3147
L4562 2910
" />
<path d="M4640 3135
L4674 3147
L4730 3147
L4753 3135
L4764 3124
L4775 3102
L4775 3079
L4764 3057
L4753 3045
L4730 3034
L4685 3023
L4663 3012
L4652 3000
L4640 2978
L4640 2955
L4652 2933
L4663 2922
L4685 2910
L4742 2910
L4775 2922
" />
<path d="M4865 2933
L4877 2922
L4899 2910
L4955 2910
L4978 2922
L4989 2933
L5000 2955
L5000 2978
L4989 3012
L4854 3147
L5000 3147
" />
<path d="M5135 3012
L5113 3000
L5102 2989
L5090 2967
L5090 2955
L5102 2933
L5113 2922
L5135 2910
L5180 2910
L5203 2922
L5214 2933
L5225 2955
L5225 2967
L5214 2989
L5203 3000
L5180 3012
L5135 3012
L5113 3023
L5102 3034
L5090 3057
L5090 3102
L5102 3124
L5113 3135
L5135 3147
L5180 3147
L5203 3135
L5214 3124
L5225 3102
L5225 3057
L5214 3034
L5203 3023
L5180 3012
" />
<path d="M5450 3147
L5315 3147
" />
<path d="M5383 3147
L5383 2910
L5360 2944
L5338 2967
L5315 2978
" />
<path d="M5540 2933
L5552 2922
L5574 2910
L5630 2910
L5653 2922
L5664 2933
L5675 2955
L5675 2978
L5664 3012
L5529 3147
L5675 3147
" />
<path d="M5855 3023
L5889 3034
L5900 3045
L5912 3068
L5912 3102
L5900 3124
L5889 3135
L5867 3147
L5777 3147
L5777 2910
L5855 2910
L5878 2922
L5889 2933
L5900 2955
L5900 2978
L5889 3000
L5878 3012
L5855 3023
L5777 3023
" />
</g>
<g style="fill:#009F9F; fill-opacity:0.0; 
stroke:#009F9F; stroke-width:39.3701; stroke-opacity:1; 
stroke-linecap:round; stroke-linejoin:round;">
<path d="M7670 1028
L7580 1028
" />
<path d="M7625 1028
L7625 871
L7610 893
L7595 908
L7580 916
" />
<path d="M7768 871
L7783 871
L7798 878
L7805 886
L7813 901
L7820 931
L7820 968
L7813 998
L7805 1013
L7798 1021
L7783 1028
L7768 1028
L7753 1021
L7745 1013
L7738 998
L7730 968
L7730 931
L7738 901
L7745 886
L7753 878
L7768 871
" />
<path d="M7888 1028
L7888 871
" />
<path d="M7978 1028
L7910 938
" />
<path d="M7978 871
L7888 961
" />
<path d="M2843 3996
L2843 3981
L2850 3966
L2858 3958
L2873 3951
L2903 3943
L2940 3943
L2970 3951
L2985 3958
L2993 3966
L3000 3981
L3000 3996
L2993 4011
L2985 4018
L2970 4026
L2940 4033
L2903 4033
L2873 4026
L2858 4018
L2850 4011
L2843 3996
" />
<path d="M2985 3876
L2993 3868
L3000 3876
L2993 3883
L2985 3876
L3000 3876
" />
<path d="M3000 3718
L3000 3808
" />
<path d="M3000 3763
L2843 3763
L2865 3778
L2880 3793
L2888 3808
" />
<path d="M2895 3583
L3000 3583
" />
<path d="M2895 3651
L2978 3651
L2993 3643
L3000 3628
L3000 3606
L2993 3591
L2985 3583
" />
<path d="M2895 3531
L2895 3471
" />
<path d="M3000 3508
L2865 3508
L2850 3501
L2843 3486
L2843 3471
" />
<path d="M3000 3043
L3000 3133
" />
<path d="M3000 3088
L2843 3088
L2865 3103
L2880 3118
L2888 3133
" />
<path d="M2895 2908
L3000 2908
" />
<path d="M2895 2976
L2978 2976
L2993 2968
L3000 2953
L3000 2931
L2993 2916
L2985 2908
" />
<path d="M2895 2856
L2895 2796
" />
<path d="M3000 2834
L2865 2834
L2850 2826
L2843 2811
L2843 2796
" />
<path d="M3000 2219
L3000 2309
" />
<path d="M3000 2264
L2843 2264
L2865 2279
L2880 2294
L2888 2309
" />
<path d="M3000 2151
L2843 2151
" />
<path d="M3000 2061
L2910 2129
" />
<path d="M2843 2061
L2933 2151
" />
</g>
<g style="fill:#009F9F; fill-opacity:0.0; 
stroke:#009F9F; stroke-width:49.2126; stroke-opacity:1; 
stroke-linecap:round; stroke-linejoin:round;">
<path d="M6756 9770
L6559 9770
L6756 9658
L6559 9658
" />
<path d="M6653 9564
L6653 9498
" />
<path d="M6756 9470
L6756 9564
L6559 9564
L6559 9470
" />
<path d="M6559 9348
L6559 9311
L6569 9292
L6587 9273
L6625 9264
L6691 9264
L6728 9273
L6747 9292
L6756 9311
L6756 9348
L6747 9367
L6728 9386
L6691 9395
L6625 9395
L6587 9386
L6569 9367
L6559 9348
" />
<path d="M6756 9180
L6559 9180
L6559 9105
L6569 9086
L6578 9076
L6597 9067
L6625 9067
L6644 9076
L6653 9086
L6662 9105
L6662 9180
" />
<path d="M6756 8983
L6559 8983
" />
<path d="M6559 8908
L6756 8777
" />
<path d="M6559 8777
L6756 8908
" />
<path d="M6653 8702
L6653 8636
" />
<path d="M6756 8608
L6756 8702
L6559 8702
L6559 8608
" />
<path d="M6756 8430
L6756 8523
L6559 8523
" />
<path d="M1998 7723
L2011 7684
L2024 7670
L2050 7657
L2090 7657
L2116 7670
L2129 7684
L2142 7710
L2142 7815
L1867 7815
L1867 7723
L1880 7697
L1893 7684
L1919 7670
L1946 7670
L1972 7684
L1985 7697
L1998 7723
L1998 7815
" />
<path d="M2142 7382
L2011 7474
" />
<path d="M2142 7539
L1867 7539
L1867 7434
L1880 7408
L1893 7395
L1919 7382
L1959 7382
L1985 7395
L1998 7408
L2011 7434
L2011 7539
" />
<path d="M1998 7264
L1998 7172
" />
<path d="M2142 7132
L2142 7264
L1867 7264
L1867 7132
" />
<path d="M2064 7027
L2064 6896
" />
<path d="M2142 7054
L1867 6962
L2142 6870
" />
<path d="M2142 6778
L1867 6778
" />
<path d="M2142 6621
L1985 6739
" />
<path d="M1867 6621
L2024 6778
" />
<path d="M1867 6450
L1867 6397
L1880 6371
L1906 6345
L1959 6332
L2050 6332
L2103 6345
L2129 6371
L2142 6397
L2142 6450
L2129 6476
L2103 6502
L2050 6516
L1959 6516
L1906 6502
L1880 6476
L1867 6450
" />
<path d="M1867 6214
L2090 6214
L2116 6201
L2129 6187
L2142 6161
L2142 6109
L2129 6082
L2116 6069
L2090 6056
L1867 6056
" />
<path d="M1867 5964
L1867 5807
" />
<path d="M2142 5886
L1867 5886
" />
</g>
<g style="fill:#009F9F; fill-opacity:0.0; 
stroke:#009F9F; stroke-width:59.0551; stroke-opacity:1; 
stroke-linecap:round; stroke-linejoin:round;">
<path d="M3769 1876
L3802 1887
L3859 1887
L3881 1876
L3892 1864
L3904 1842
L3904 1819
L3892 1797
L3881 1786
L3859 1774
L3814 1763
L3791 1752
L3780 1741
L3769 1718
L3769 1696
L3780 1673
L3791 1662
L3814 1651
L3870 1651
L3904 1662
" />
<path d="M4005 1763
L4084 1763
" />
<path d="M4117 1887
L4005 1887
L4005 1651
L4117 1651
" />
<path d="M4354 1887
L4275 1774
" />
<path d="M4219 1887
L4219 1651
L4309 1651
L4331 1662
L4342 1673
L4354 1696
L4354 1729
L4342 1752
L4331 1763
L4309 1774
L4219 1774
" />
<path d="M4455 1887
L4455 1651
" />
<path d="M4556 1819
L4669 1819
" />
<path d="M4534 1887
L4612 1651
L4691 1887
" />
<path d="M4882 1887
L4770 1887
L4770 1651
" />
</g>
<g style="fill:#009F9F; fill-opacity:0.0; 
stroke:#009F9F; stroke-width:39.3701; stroke-opacity:1; 
stroke-linecap:round; stroke-linejoin:round;">
<path d="M559 1330
L402 1330
L402 1270
L409 1255
L417 1247
L432 1240
L454 1240
L469 1247
L477 1255
L484 1270
L484 1330
" />
<path d="M402 1187
L559 1150
L447 1120
L559 1090
L402 1052
" />
<path d="M559 902
L484 955
" />
<path d="M559 992
L402 992
L402 932
L409 917
L417 910
L432 902
L454 902
L469 910
L477 917
L484 932
L484 992
" />
<path d="M574 873
L574 753
" />
<path d="M559 640
L559 715
L402 715
" />
<path d="M477 588
L477 535
" />
<path d="M559 513
L559 588
L402 588
L402 513
" />
<path d="M559 445
L402 445
L402 408
L409 385
L424 370
L439 363
L469 355
L492 355
L522 363
L537 370
L552 385
L559 408
L559 445
" />
</g>
<g style="fill:#009F9F; fill-opacity:0.0; 
stroke:#009F9F; stroke-width:59.0551; stroke-opacity:1; 
stroke-linecap:round; stroke-linejoin:round;">
<path d="M6609 6814
L6609 6735
" />
<path d="M6733 6701
L6733 6814
L6497 6814
L6497 6701
" />
<path d="M6721 6611
L6733 6577
L6733 6521
L6721 6499
L6710 6487
L6688 6476
L6665 6476
L6643 6487
L6631 6499
L6620 6521
L6609 6566
L6598 6589
L6586 6600
L6564 6611
L6541 6611
L6519 6600
L6508 6589
L6497 6566
L6497 6510
L6508 6476
" />
<path d="M6733 6375
L6497 6375
L6497 6285
L6508 6262
L6519 6251
L6541 6240
L6575 6240
L6598 6251
L6609 6262
L6620 6285
L6620 6375
" />
<path d="M6643 6139
L6643 5959
" />
<path d="M6497 5801
L6497 5779
L6508 5756
L6519 5745
L6541 5734
L6586 5723
L6643 5723
L6688 5734
L6710 5745
L6721 5756
L6733 5779
L6733 5801
L6721 5824
L6710 5835
L6688 5846
L6643 5858
L6586 5858
L6541 5846
L6519 5835
L6508 5824
L6497 5801
" />
<path d="M6733 5498
L6733 5633
" />
<path d="M6733 5565
L6497 5565
L6530 5588
L6553 5610
L6564 5633
" />
<path d="M2408 4946
L2588 4946
" />
<path d="M2498 5036
L2498 4856
" />
<path d="M2678 4800
L2824 4800
L2745 4890
L2779 4890
L2801 4901
L2813 4913
L2824 4935
L2824 4991
L2813 5014
L2801 5025
L2779 5036
L2711 5036
L2689 5025
L2678 5014
" />
<path d="M2925 5014
L2936 5025
L2925 5036
L2914 5025
L2925 5014
L2925 5036
" />
<path d="M3015 4800
L3161 4800
L3083 4890
L3116 4890
L3139 4901
L3150 4913
L3161 4935
L3161 4991
L3150 5014
L3139 5025
L3116 5036
L3049 5036
L3026 5025
L3015 5014
" />
</g>
<g style="fill:#009F9F; fill-opacity:0.0; 
stroke:#009F9F; stroke-width:39.3701; stroke-opacity:1; 
stroke-linecap:round; stroke-linejoin:round;">
<path d="M3716 5004
L3664 4929
" />
<path d="M3626 5004
L3626 4847
L3686 4847
L3701 4855
L3709 4862
L3716 4877
L3716 4899
L3709 4914
L3701 4922
L3686 4929
L3626 4929
" />
<path d="M3776 4997
L3799 5004
L3836 5004
L3851 4997
L3859 4989
L3866 4974
L3866 4959
L3859 4944
L3851 4937
L3836 4929
L3806 4922
L3791 4914
L3784 4907
L3776 4892
L3776 4877
L3784 4862
L3791 4855
L3806 4847
L3844 4847
L3866 4855
" />
<path d="M3911 4847
L4001 4847
" />
<path d="M3956 5004
L3956 4847
" />
</g>
<g style="fill:#009F9F; fill-opacity:0.0; 
stroke:#009F9F; stroke-width:59.0551; stroke-opacity:1; 
stroke-linecap:round; stroke-linejoin:round;">
<path d="M5726 4800
L5861 4800
" />
<path d="M5793 5036
L5793 4800
" />
<path d="M5917 5036
L6041 4879
" />
<path d="M5917 4879
L6041 5036
" />
</g>
<g style="fill:#009F9F; fill-opacity:0.0; 
stroke:#009F9F; stroke-width:39.3701; stroke-opacity:1; 
stroke-linecap:round; stroke-linejoin:round;">
<path d="M4614 4989
L4607 4997
L4584 5004
L4569 5004
L4547 4997
L4532 4982
L4524 4967
L4517 4937
L4517 4914
L4524 4885
L4532 4870
L4547 4855
L4569 4847
L4584 4847
L4607 4855
L4614 4862
" />
<path d="M4682 5004
L4682 4847
" />
<path d="M4682 4922
L4772 4922
" />
<path d="M4772 5004
L4772 4847
" />
<path d="M4809 5019
L4929 5019
" />
<path d="M4967 5004
L4967 4847
L5027 4847
L5042 4855
L5049 4862
L5057 4877
L5057 4899
L5049 4914
L5042 4922
L5027 4929
L4967 4929
" />
<path d="M5124 5004
L5124 4847
L5162 4847
L5184 4855
L5199 4870
L5207 4885
L5214 4914
L5214 4937
L5207 4967
L5199 4982
L5184 4997
L5162 5004
L5124 5004
" />
<path d="M4672 7335
L4657 7327
L4635 7327
L4612 7335
L4597 7350
L4590 7365
L4582 7395
L4582 7417
L4590 7447
L4597 7462
L4612 7477
L4635 7485
L4650 7485
L4672 7477
L4680 7470
L4680 7417
L4650 7417
" />
<path d="M4747 7485
L4747 7327
L4807 7327
L4822 7335
L4830 7342
L4837 7357
L4837 7380
L4830 7395
L4822 7402
L4807 7410
L4747 7410
" />
<path d="M4905 7485
L4905 7327
" />
<path d="M5010 7327
L5040 7327
L5055 7335
L5070 7350
L5077 7380
L5077 7432
L5070 7462
L5055 7477
L5040 7485
L5010 7485
L4995 7477
L4980 7462
L4972 7432
L4972 7380
L4980 7350
L4995 7335
L5010 7327
" />
<path d="M5137 7342
L5145 7335
L5160 7327
L5197 7327
L5212 7335
L5220 7342
L5227 7357
L5227 7372
L5220 7395
L5130 7485
L5227 7485
" />
</g>
<g style="fill:#009F9F; fill-opacity:0.0; 
stroke:#009F9F; stroke-width:59.0551; stroke-opacity:1; 
stroke-linecap:round; stroke-linejoin:round;">
<path d="M5748 7292
L5726 7280
L5692 7280
L5658 7292
L5636 7314
L5625 7337
L5613 7382
L5613 7415
L5625 7460
L5636 7483
L5658 7505
L5692 7517
L5715 7517
L5748 7505
L5760 7494
L5760 7415
L5715 7415
" />
<path d="M5861 7517
L5861 7280
L5996 7517
L5996 7280
" />
<path d="M6108 7517
L6108 7280
L6165 7280
L6198 7292
L6221 7314
L6232 7337
L6243 7382
L6243 7415
L6232 7460
L6221 7483
L6198 7505
L6165 7517
L6108 7517
" />
</g>
<g style="fill:#009F9F; fill-opacity:0.0; 
stroke:#009F9F; stroke-width:39.3701; stroke-opacity:1; 
stroke-linecap:round; stroke-linejoin:round;">
<path d="M3609 7335
L3594 7327
L3572 7327
L3549 7335
L3534 7350
L3527 7365
L3519 7395
L3519 7417
L3527 7447
L3534 7462
L3549 7477
L3572 7485
L3587 7485
L3609 7477
L3617 7470
L3617 7417
L3587 7417
" />
<path d="M3684 7485
L3684 7327
L3744 7327
L3759 7335
L3767 7342
L3774 7357
L3774 7380
L3767 7395
L3759 7402
L3744 7410
L3684 7410
" />
<path d="M3842 7485
L3842 7327
" />
<path d="M3947 7327
L3977 7327
L3992 7335
L4007 7350
L4014 7380
L4014 7432
L4007 7462
L3992 7477
L3977 7485
L3947 7485
L3932 7477
L3917 7462
L3909 7432
L3909 7380
L3917 7350
L3932 7335
L3947 7327
" />
<path d="M4112 7327
L4127 7327
L4142 7335
L4149 7342
L4157 7357
L4164 7387
L4164 7425
L4157 7455
L4149 7470
L4142 7477
L4127 7485
L4112 7485
L4097 7477
L4089 7470
L4082 7455
L4074 7425
L4074 7387
L4082 7357
L4089 7342
L4097 7335
L4112 7327
" />
</g>
<g style="fill:#009F9F; fill-opacity:0.0; 
stroke:#009F9F; stroke-width:59.0551; stroke-opacity:1; 
stroke-linecap:round; stroke-linejoin:round;">
<path d="M2796 7517
L2717 7404
" />
<path d="M2661 7517
L2661 7280
L2751 7280
L2773 7292
L2784 7303
L2796 7325
L2796 7359
L2784 7382
L2773 7393
L2751 7404
L2661 7404
" />
<path d="M2874 7517
L2998 7359
" />
<path d="M2874 7359
L2998 7517
" />
</g>
<g style="fill:#009F9F; fill-opacity:0.0; 
stroke:#009F9F; stroke-width:60; stroke-opacity:1; 
stroke-linecap:round; stroke-linejoin:round;">
<path d="M2115 9238
L1815 9238
L1815 9124
L1829 9096
L1843 9081
L1872 9067
L1915 9067
L1943 9081
L1958 9096
L1972 9124
L1972 9238
" />
<path d="M1815 8967
L2115 8896
L1901 8838
L2115 8781
L1815 8710
" />
<path d="M2115 8424
L1972 8524
" />
<path d="M2115 8596
L1815 8596
L1815 8481
L1829 8453
L1843 8438
L1872 8424
L1915 8424
L1943 8438
L1958 8453
L1972 8481
L1972 8596
" />
</g>
<g style="fill:#009F9F; fill-opacity:0.0; 
stroke:#009F9F; stroke-width:59.0551; stroke-opacity:1; 
stroke-linecap:round; stroke-linejoin:round;">
<path d="M620 5446
L620 5170
L725 5170
L751 5184
L764 5197
L778 5223
L778 5262
L764 5289
L751 5302
L725 5315
L620 5315
" />
<path d="M1053 5446
L961 5315
" />
<path d="M896 5446
L896 5170
L1001 5170
L1027 5184
L1040 5197
L1053 5223
L1053 5262
L1040 5289
L1027 5302
L1001 5315
L896 5315
" />
<path d="M1316 5184
L1289 5170
L1250 5170
L1211 5184
L1184 5210
L1171 5236
L1158 5289
L1158 5328
L1171 5380
L1184 5407
L1211 5433
L1250 5446
L1276 5446
L1316 5433
L1329 5420
L1329 5328
L1276 5328
" />
<path d="M1447 5446
L1447 5170
L1539 5367
L1631 5170
L1631 5446
" />
<path d="M7024 5446
L6932 5315
" />
<path d="M6867 5446
L6867 5170
L6972 5170
L6998 5184
L7011 5197
L7024 5223
L7024 5262
L7011 5289
L6998 5302
L6972 5315
L6867 5315
" />
<path d="M7142 5302
L7234 5302
" />
<path d="M7274 5446
L7142 5446
L7142 5170
L7274 5170
" />
<path d="M7379 5433
L7418 5446
L7484 5446
L7510 5433
L7523 5420
L7536 5393
L7536 5367
L7523 5341
L7510 5328
L7484 5315
L7431 5302
L7405 5289
L7392 5275
L7379 5249
L7379 5223
L7392 5197
L7405 5184
L7431 5170
L7497 5170
L7536 5184
" />
<path d="M7654 5302
L7746 5302
" />
<path d="M7785 5446
L7654 5446
L7654 5170
L7785 5170
" />
<path d="M7864 5170
L8022 5170
" />
<path d="M7943 5446
L7943 5170
" />
<path d="M4747 2067
L4117 2736
" />
<path d="M6086 2067
L6086 4035
" />
<path d="M6086 4035
L4117 4035
" />
<path d="M4117 4035
L4117 2067
" />
<path d="M4117 2067
L6086 2067
" />
</g>
<g style="fill:#009F9F; fill-opacity:0.0; 
stroke:#009F9F; stroke-width:39; stroke-opacity:1; 
stroke-linecap:round; stroke-linejoin:round;">
<circle cx="7479.34" cy="314.865" r="50" /> 
<path d="M7479 764
L7479 364
" />
<path d="M7479 364
L8079 364
" />
<path d="M8079 364
L8079 764
" />
<path d="M8079 1164
L8079 1564
" />
<path d="M8079 1564
L7479 1564
" />
<path d="M7479 1564
L7479 1164
" />
<circle cx="2286.82" cy="4060.14" r="50" /> 
<path d="M2736 4060
L2336 4060
" />
<path d="M2336 4060
L2336 3460
" />
<path d="M2336 3460
L2736 3460
" />
<path d="M3136 3460
L3536 3460
" />
<path d="M3536 3460
L3536 4060
" />
<path d="M3536 4060
L3136 4060
" />
<circle cx="2286.82" cy="3272.74" r="50" /> 
<path d="M2736 3272
L2336 3272
" />
<path d="M2336 3272
L2336 2672
" />
<path d="M2336 2672
L2736 2672
" />
<path d="M3136 2672
L3536 2672
" />
<path d="M3536 2672
L3536 3272
" />
<path d="M3536 3272
L3136 3272
" />
<circle cx="2286.82" cy="2485.34" r="50" /> 
<path d="M2736 2485
L2336 2485
" />
<path d="M2336 2485
L2336 1885
" />
<path d="M2336 1885
L2736 1885
" />
<path d="M3136 1885
L3536 1885
" />
<path d="M3536 1885
L3536 2485
" />
<path d="M3536 2485
L3136 2485
" />
</g>
<g style="fill:#009F9F; fill-opacity:0.0; 
stroke:#009F9F; stroke-width:100; stroke-opacity:1; 
stroke-linecap:round; stroke-linejoin:round;">
<path d="M6885 9854
L6885 5854
" />
<path d="M7885 9854
L7885 5854
" />
<path d="M7885 5854
L6885 5854
" />
<path d="M6885 9854
L7885 9854
" />
</g>
<g style="fill:#009F9F; fill-opacity:0.0; 
stroke:#009F9F; stroke-width:60; stroke-opacity:1; 
stroke-linecap:round; stroke-linejoin:round;">
<path d="M1743 7831
L743 7831
" />
<path d="M743 7831
L743 5831
" />
<path d="M743 5831
L1743 5831
" />
<path d="M1743 5831
L1743 7831
" />
</g>
<g style="fill:#009F9F; fill-opacity:0.0; 
stroke:#009F9F; stroke-width:120; stroke-opacity:1; 
stroke-linecap:round; stroke-linejoin:round;">
<path d="M1314 1543
L1314 543
" />
<path d="M1314 543
L7314 543
" />
<path d="M7314 543
L7314 1543
" />
<path d="M7314 1543
L1314 1543
" />
<path d="M2314 1543
L2314 543
" />
</g>
<g style="fill:#009F9F; fill-opacity:0.0; 
stroke:#009F9F; stroke-width:26; stroke-opacity:1; 
stroke-linecap:round; stroke-linejoin:round;">
<path d="M1007 650
L1135 650
" />
<path d="M1135 650
L1135 453
" />
<path d="M1007 453
L1135 453
" />
<path d="M1007 650
L1007 453
" />
<path d="M762 650
L821 650
" />
<path d="M821 650
L821 551
" />
<path d="M762 551
L821 551
" />
<path d="M762 650
L762 551
" />
<path d="M957 650
L1016 650
" />
<path d="M1016 650
L1016 551
" />
<path d="M957 551
L1016 551
" />
<path d="M957 650
L957 551
" />
<path d="M811 650
L967 650
" />
<path d="M967 650
L967 581
" />
<path d="M811 581
L967 581
" />
<path d="M811 650
L811 581
" />
<path d="M1007 1239
L1135 1239
" />
<path d="M1135 1239
L1135 1042
" />
<path d="M1007 1042
L1135 1042
" />
<path d="M1007 1239
L1007 1042
" />
<path d="M643 1239
L771 1239
" />
<path d="M771 1239
L771 1042
" />
<path d="M643 1042
L771 1042
" />
<path d="M643 1239
L643 1042
" />
<path d="M957 1141
L1016 1141
" />
<path d="M1016 1141
L1016 1042
" />
<path d="M957 1042
L1016 1042
" />
<path d="M957 1141
L957 1042
" />
<path d="M762 1141
L821 1141
" />
<path d="M821 1141
L821 1042
" />
<path d="M762 1042
L821 1042
" />
<path d="M762 1141
L762 1042
" />
<path d="M811 1111
L967 1111
" />
<path d="M967 1111
L967 1042
" />
<path d="M811 1042
L967 1042
" />
<path d="M811 1111
L811 1042
" />
<path d="M850 846
L928 846
" />
<path d="M928 846
L928 768
" />
<path d="M850 768
L928 768
" />
<path d="M850 846
L850 768
" />
<path d="M653 650
L771 650
" />
<path d="M771 650
L771 532
" />
<path d="M653 532
L771 532
" />
<path d="M653 650
L653 532
" />
<path d="M643 482
L732 482
" />
<path d="M732 482
L732 453
" />
<path d="M643 453
L732 453
" />
<path d="M643 482
L643 453
" />
</g>
<g style="fill:#009F9F; fill-opacity:0.0; 
stroke:#009F9F; stroke-width:40; stroke-opacity:1; 
stroke-linecap:round; stroke-linejoin:round;">
<path d="M1115 640
L1115 1052
" />
<path d="M663 1042
L663 482
" />
</g>
<g style="fill:#009F9F; fill-opacity:0.0; 
stroke:#009F9F; stroke-width:20; stroke-opacity:1; 
stroke-linecap:round; stroke-linejoin:round;">
<circle cx="712.576" cy="512.755" r="28.2843" /> 
</g>
<g style="fill:#009F9F; fill-opacity:0.0; 
stroke:#009F9F; stroke-width:40; stroke-opacity:1; 
stroke-linecap:round; stroke-linejoin:round;">
<path d="M752.576 453.755 A137 137 0.0 0 0 1026.58 453.755 " />
<path d="M1026.58 1239.75 A137 137 0.0 0 0 752.576 1239.75 " />
</g>
<g style="fill:#009F9F; fill-opacity:0.0; 
stroke:#009F9F; stroke-width:120; stroke-opacity:1; 
stroke-linecap:round; stroke-linejoin:round;">
<path d="M2354 5161
L6354 5161
" />
<path d="M6354 5161
L6354 7161
" />
<path d="M6354 7161
L2354 7161
" />
<path d="M2354 7161
L2354 5161
" />
</g>
<g style="fill:#009F9F; fill-opacity:0.0; 
stroke:#009F9F; stroke-width:60; stroke-opacity:1; 
stroke-linecap:round; stroke-linejoin:round;">
<path d="M743 7838
L1743 7838
" />
<path d="M1743 7838
L1743 9838
" />
<path d="M1743 9838
L743 9838
" />
<path d="M743 9838
L743 7838
" />
</g>
<g style="fill:#009F9F; fill-opacity:0.0; 
stroke:#009F9F; stroke-width:59.0551; stroke-opacity:1; 
stroke-linecap:round; stroke-linejoin:round;">
<path d="M456 5059
L456 1752
" />
<path d="M456 1752
L1795 1752
" />
<path d="M1795 1752
L1795 5059
" />
<path d="M1795 5059
L456 5059
" />
<path d="M6755 5059
L6755 1752
" />
<path d="M6755 1752
L8094 1752
" />
<path d="M8094 1752
L8094 5059
" />
<path d="M8094 5059
L6755 5059
" />
</g>
<g style="fill:#9F0000; fill-opacity:0.0; 
stroke:#9F0000; stroke-width:39.3701; stroke-opacity:1; 
stroke-linecap:round; stroke-linejoin:round;">
</g>
<g style="fill:#9F0000; fill-opacity:1.0; 
stroke:#9F0000; stroke-width:39.3701; stroke-opacity:1; 
stroke-linecap:round; stroke-linejoin:round;">
<polyline style="fill-rule:evenodd;"
points="6342,3622
6342,3937
5791,3937
5791,3622
6342,3622
" /> 
<polyline style="fill-rule:evenodd;"
points="6342,2165
6342,2480
5791,2480
5791,2165
6342,2165
" /> 
<polyline style="fill-rule:evenodd;"
points="4432,2165
4432,2480
3881,2480
3881,2165
4432,2165
" /> 
<polyline style="fill-rule:evenodd;"
points="4432,3622
4432,3937
3881,3937
3881,3622
4432,3622
" /> 
<polyline style="fill-rule:evenodd;"
points="7524,434
8034,434
8034,745
7524,745
7524,434
" /> 
<polyline style="fill-rule:evenodd;"
points="7524,1184
8034,1184
8034,1495
7524,1495
7524,1184
" /> 
<polyline style="fill-rule:evenodd;"
points="2406,4015
2406,3504
2717,3504
2717,4015
2406,4015
" /> 
<polyline style="fill-rule:evenodd;"
points="3156,4015
3156,3504
3467,3504
3467,4015
3156,4015
" /> 
<polyline style="fill-rule:evenodd;"
points="2406,3228
2406,2717
2717,2717
2717,3228
2406,3228
" /> 
<polyline style="fill-rule:evenodd;"
points="3156,3228
3156,2717
3467,2717
3467,3228
3156,3228
" /> 
<polyline style="fill-rule:evenodd;"
points="2406,2440
2406,1930
2717,1930
2717,2440
2406,2440
" /> 
<polyline style="fill-rule:evenodd;"
points="3156,2440
3156,1930
3467,1930
3467,2440
3156,2440
" /> 
</g>
<g style="fill:#7F7F00; fill-opacity:1.0; 
stroke:#7F7F00; stroke-width:39.3701; stroke-opacity:1; 
stroke-linecap:round; stroke-linejoin:round;">
<polyline style="fill-rule:evenodd;"
points="7105,6074
7665,6074
7665,6634
7105,6634
7105,6074
" /> 
<circle cx="7385.64" cy="7354.63" r="280.315" /> 
<circle cx="7385.64" cy="8354.63" r="280.315" /> 
<circle cx="7385.64" cy="9354.63" r="280.315" /> 
<polyline style="fill-rule:evenodd;"
points="1524,7611
963,7611
963,7050
1524,7050
1524,7611
" /> 
<circle cx="1243.91" cy="6331.01" r="280.315" /> 
<polyline style="fill-rule:evenodd;"
points="1534,1323
1534,763
2095,763
2095,1323
1534,1323
" /> 
<circle cx="2814.77" cy="1043.61" r="280.315" /> 
<circle cx="3814.77" cy="1043.61" r="280.315" /> 
<circle cx="4814.77" cy="1043.61" r="280.315" /> 
<circle cx="5814.77" cy="1043.61" r="280.315" /> 
<circle cx="6814.77" cy="1043.61" r="280.315" /> 
</g>
<g style="fill:#9F0000; fill-opacity:1.0; 
stroke:#9F0000; stroke-width:39.3701; stroke-opacity:1; 
stroke-linecap:round; stroke-linejoin:round;">
<polyline style="fill-rule:evenodd;"
points="1105,1476
673,1476
673,1043
1105,1043
1105,1476
" /> 
<polyline style="fill-rule:evenodd;"
points="1105,650
673,650
673,217
1105,217
1105,650
" /> 
</g>
<g style="fill:#7F7F00; fill-opacity:1.0; 
stroke:#7F7F00; stroke-width:39.3701; stroke-opacity:1; 
stroke-linecap:round; stroke-linejoin:round;">
<polyline style="fill-rule:evenodd;"
points="2573,6942
2573,6381
3134,6381
3134,6942
2573,6942
" /> 
<circle cx="2854.14" cy="5661.72" r="280.315" /> 
<circle cx="3854.14" cy="6661.72" r="280.315" /> 
<circle cx="3854.14" cy="5661.72" r="280.315" /> 
<circle cx="4854.14" cy="6661.72" r="280.315" /> 
<circle cx="4854.14" cy="5661.72" r="280.315" /> 
<polyline style="fill-rule:evenodd;"
points="5573,6942
5573,6381
6134,6381
6134,6942
5573,6942
" /> 
<circle cx="5854.14" cy="5661.72" r="280.315" /> 
</g>
<g style="fill:#9F0000; fill-opacity:1.0; 
stroke:#9F0000; stroke-width:39.3701; stroke-opacity:1; 
stroke-linecap:round; stroke-linejoin:round;">
<polyline style="fill-rule:evenodd;"
points="5023,4252
5023,4527
4826,4527
4826,4252
5023,4252
" /> 
<polyline style="fill-rule:evenodd;"
points="5299,4252
5299,4527
5102,4527
5102,4252
5299,4252
" /> 
</g>
<g style="fill:#7F7F00; fill-opacity:1.0; 
stroke:#7F7F00; stroke-width:39.3701; stroke-opacity:1; 
stroke-linecap:round; stroke-linejoin:round;">
<polyline style="fill-rule:evenodd;"
points="963,8058
1524,8058
1524,8619
963,8619
963,8058
" /> 
<circle cx="1243.91" cy="9338.88" r="280.315" /> 
</g>
<g style="fill:#9F0000; fill-opacity:1.0; 
stroke:#9F0000; stroke-width:39.3701; stroke-opacity:1; 
stroke-linecap:round; stroke-linejoin:round;">
<polyline style="fill-rule:evenodd;"
points="1606,2386
645,2386
645,1826
1606,1826
1606,2386
" /> 
<polyline style="fill-rule:evenodd;"
points="1606,4985
645,4985
645,4424
1606,4424
1606,4985
" /> 
<polyline style="fill-rule:evenodd;"
points="7905,2386
6944,2386
6944,1826
7905,1826
7905,2386
" /> 
<polyline style="fill-rule:evenodd;"
points="7905,4985
6944,4985
6944,4424
7905,4424
7905,4985
" /> 
</g>
<g style="fill:#9F0000; fill-opacity:1.0; 
stroke:#9F0000; stroke-width:100; stroke-opacity:1; 
stroke-linecap:round; stroke-linejoin:round;">
<path d="M3311 2185
L3311 2660
" />
<path d="M3311 2660
L3311 2972
" />
<path d="M3814 1043
L3982 1211
" />
<path d="M4507 2660
L3311 2660
" />
<path d="M4610 2558
L4507 2660
" />
<path d="M4610 1838
L4610 2558
" />
<path d="M3982 1211
L4610 1838
" />
<path d="M6066 3779
L5621 3779
" />
<path d="M5353 3511
L5621 3779
" />
<path d="M5353 589
L5353 3511
" />
<path d="M4604 589
L5353 589
" />
<path d="M3982 1211
L4604 589
" />
<path d="M5353 589
L7779 589
" />
</g>
<g style="fill:#009F00; fill-opacity:1.0; 
stroke:#009F00; stroke-width:100; stroke-opacity:1; 
stroke-linecap:round; stroke-linejoin:round;">
<path d="M5732 7354
L7385 7354
" />
<path d="M5403 7026
L5732 7354
" />
<path d="M5403 6211
L5403 7026
" />
<path d="M4854 5661
L5403 6211
" />
</g>
<g style="fill:#9F0000; fill-opacity:1.0; 
stroke:#9F0000; stroke-width:100; stroke-opacity:1; 
stroke-linecap:round; stroke-linejoin:round;">
<path d="M3311 3760
L3149 3760
" />
<path d="M3149 3560
L3311 3397
" />
<path d="M3149 3760
L3149 3560
" />
<path d="M3311 2972
L3311 3397
" />
<path d="M1976 6539
L2854 5661
" />
<path d="M1976 8606
L1976 6539
" />
<path d="M1243 9338
L1976 8606
" />
<path d="M3149 4924
L3149 3760
" />
<path d="M2854 5219
L3149 4924
" />
<path d="M2854 5661
L2854 5219
" />
</g>
<g style="fill:#009F00; fill-opacity:1.0; 
stroke:#009F00; stroke-width:100; stroke-opacity:1; 
stroke-linecap:round; stroke-linejoin:round;">
<path d="M4392 5199
L4854 5661
" />
<path d="M3316 5199
L4392 5199
" />
<path d="M2854 5661
L3316 5199
" />
</g>
<g style="fill:#9F0000; fill-opacity:1.0; 
stroke:#9F0000; stroke-width:100; stroke-opacity:1; 
stroke-linecap:round; stroke-linejoin:round;">
<path d="M7385 5194
L7385 6354
" />
<path d="M7425 5155
L7385 5194
" />
<path d="M7425 4705
L7425 5155
" />
</g>
<g style="fill:#009F00; fill-opacity:1.0; 
stroke:#009F00; stroke-width:100; stroke-opacity:1; 
stroke-linecap:round; stroke-linejoin:round;">
<path d="M6628 6661
L6935 6354
" />
<path d="M5854 6661
L6628 6661
" />
<path d="M7385 6354
L6935 6354
" />
</g>
<g style="fill:#9F0000; fill-opacity:1.0; 
stroke:#9F0000; stroke-width:100; stroke-opacity:1; 
stroke-linecap:round; stroke-linejoin:round;">
<path d="M1243 8338
L1243 7888
" />
<path d="M7273 6804
L7385 6804
" />
<path d="M6935 7142
L7273 6804
" />
<path d="M6935 8904
L6935 7142
" />
<path d="M7385 9354
L6935 8904
" />
<path d="M7385 6354
L7385 6804
" />
<path d="M4157 2323
L3711 2323
" />
<path d="M1814 1043
L2264 1043
" />
<path d="M1435 593
L1814 593
" />
<path d="M1275 433
L1435 593
" />
<path d="M889 433
L1275 433
" />
<path d="M1814 1043
L1814 593
" />
</g>
<g style="fill:#009F00; fill-opacity:1.0; 
stroke:#009F00; stroke-width:100; stroke-opacity:1; 
stroke-linecap:round; stroke-linejoin:round;">
<path d="M2709 9354
L1694 8338
" />
<path d="M7385 9354
L2709 9354
" />
<path d="M1243 8338
L1694 8338
" />
</g>
<g style="fill:#9F0000; fill-opacity:1.0; 
stroke:#9F0000; stroke-width:100; stroke-opacity:1; 
stroke-linecap:round; stroke-linejoin:round;">
<path d="M2561 2972
L2886 2972
" />
<path d="M2886 1767
L2894 1760
" />
<path d="M2886 2972
L2886 1767
" />
<path d="M2264 1131
L2894 1760
" />
<path d="M2264 1043
L2264 1131
" />
<path d="M3711 1907
L3711 2323
" />
<path d="M3564 1760
L3711 1907
" />
<path d="M2894 1760
L3564 1760
" />
<path d="M1820 2556
L2236 2972
" />
<path d="M1125 2556
L1820 2556
" />
<path d="M1125 2106
L1125 2556
" />
<path d="M2561 2972
L2236 2972
" />
<path d="M2561 5238
L2561 3760
" />
<path d="M1694 6106
L2561 5238
" />
<path d="M1694 7719
L1694 6106
" />
<path d="M1525 7888
L1694 7719
" />
<path d="M1243 7888
L1525 7888
" />
<path d="M2561 3760
L2561 2972
" />
<path d="M1131 6880
L1243 6880
" />
<path d="M793 6543
L1131 6880
" />
<path d="M793 5487
L793 6543
" />
<path d="M1125 5155
L793 5487
" />
<path d="M1125 4705
L1125 5155
" />
<path d="M1243 7331
L1243 6880
" />
</g>
<g style="fill:#009F00; fill-opacity:1.0; 
stroke:#009F00; stroke-width:100; stroke-opacity:1; 
stroke-linecap:round; stroke-linejoin:round;">
<path d="M3184 7331
L1243 7331
" />
<path d="M3854 6661
L3184 7331
" />
</g>
<g style="fill:#9F0000; fill-opacity:1.0; 
stroke:#9F0000; stroke-width:100; stroke-opacity:1; 
stroke-linecap:round; stroke-linejoin:round;">
<path d="M5200 4390
L5200 4697
" />
<path d="M5315 6200
L4854 6661
" />
<path d="M5315 4812
L5315 6200
" />
<path d="M5200 4697
L5315 4812
" />
</g>
<g style="fill:#009F00; fill-opacity:1.0; 
stroke:#009F00; stroke-width:100; stroke-opacity:1; 
stroke-linecap:round; stroke-linejoin:round;">
<path d="M4854 6763
L4854 6661
" />
<path d="M6445 8354
L4854 6763
" />
<path d="M7385 8354
L6445 8354
" />
<path d="M4400 6208
L4854 6661
" />
<path d="M1366 6208
L4400 6208
" />
<path d="M1243 6331
L1366 6208
" />
</g>
<g style="fill:#9F0000; fill-opacity:1.0; 
stroke:#9F0000; stroke-width:100; stroke-opacity:1; 
stroke-linecap:round; stroke-linejoin:round;">
<path d="M7462 1656
L7779 1339
" />
<path d="M7425 1656
L7462 1656
" />
<path d="M7425 2106
L7425 1656
" />
<path d="M7425 2106
L7425 2556
" />
<path d="M6729 3252
L7425 2556
" />
<path d="M6729 6598
L6729 3252
" />
<path d="M6216 7111
L6729 6598
" />
<path d="M4656 7111
L6216 7111
" />
<path d="M4354 6809
L4656 7111
" />
<path d="M4354 6161
L4354 6809
" />
<path d="M3854 5661
L4354 6161
" />
<path d="M4656 3833
L4602 3779
" />
<path d="M4656 4390
L4656 3833
" />
<path d="M4925 4390
L4656 4390
" />
<path d="M4157 3779
L4602 3779
" />
<path d="M1545 1493
L2236 2185
" />
<path d="M1451 1493
L1545 1493
" />
<path d="M1275 1318
L1451 1493
" />
<path d="M1275 1259
L1275 1318
" />
<path d="M889 1259
L1275 1259
" />
<path d="M2561 2185
L2236 2185
" />
<path d="M6529 1758
L5814 1043
" />
<path d="M6529 4986
L6529 1758
" />
<path d="M5854 5661
L6529 4986
" />
<path d="M2854 6661
L2854 6211
" />
<path d="M4814 2636
L4814 1043
" />
<path d="M4012 3438
L4814 2636
" />
<path d="M3795 3438
L4012 3438
" />
<path d="M3636 3597
L3795 3438
" />
<path d="M3636 4719
L3636 3597
" />
<path d="M3304 5052
L3636 4719
" />
<path d="M3304 5874
L3304 5052
" />
<path d="M2966 6211
L3304 5874
" />
<path d="M2854 6211
L2966 6211
" />
</g>
<g style="fill:#FFFFFF; fill-opacity:1.0; 
stroke:#FFFFFF; stroke-width:39.3701; stroke-opacity:1; 
stroke-linecap:round; stroke-linejoin:round;">
<circle cx="7385.64" cy="6354.63" r="180.315" /> 
<circle cx="7385.64" cy="7354.63" r="180.315" /> 
<circle cx="7385.64" cy="8354.63" r="180.315" /> 
<circle cx="7385.64" cy="9354.63" r="180.315" /> 
<circle cx="1243.91" cy="7331.01" r="180.315" /> 
<circle cx="1243.91" cy="6331.01" r="180.315" /> 
<circle cx="1814.77" cy="1043.61" r="180.315" /> 
<circle cx="2814.77" cy="1043.61" r="180.315" /> 
<circle cx="3814.77" cy="1043.61" r="180.315" /> 
<circle cx="4814.77" cy="1043.61" r="180.315" /> 
<circle cx="5814.77" cy="1043.61" r="180.315" /> 
<circle cx="6814.77" cy="1043.61" r="180.315" /> 
<circle cx="2854.14" cy="6661.72" r="180.315" /> 
<circle cx="2854.14" cy="5661.72" r="180.315" /> 
<circle cx="3854.14" cy="6661.72" r="180.315" /> 
<circle cx="3854.14" cy="5661.72" r="180.315" /> 
<circle cx="4854.14" cy="6661.72" r="180.315" /> 
<circle cx="4854.14" cy="5661.72" r="180.315" /> 
<circle cx="5854.14" cy="6661.72" r="180.315" /> 
<circle cx="5854.14" cy="5661.72" r="180.315" /> 
<circle cx="1243.91" cy="8338.88" r="180.315" /> 
<circle cx="1243.91" cy="9338.88" r="180.315" /> 
</g> 
</svg>
